<svg width="422" height="324" viewBox="0 0 422 324" fill="none" xmlns="http://www.w3.org/2000/svg">
    <g clip-path="url(#clip0_31_182)">
        <path d="M135.787 50.4165H134.926V96.524H135.787V50.4165Z" fill="#E6635E"/>
        <path d="M135.787 110.249H134.926V150.819H135.787V110.249Z" fill="#E6635E"/>
        <path d="M200 157H142V158H200V157Z" fill="#E6635E"/>
        <path d="M106.09 168.917H105.229V205.544H106.09V168.917Z" fill="#E6635E"/>
        <path d="M214.119 212.008H112.976V212.87H214.119V212.008Z" fill="#E6635E"/>
        <path d="M298.477 21.1146H297.616V64.6366H298.477V21.1146Z" fill="#E6635E"/>
        <path d="M291.16 71.5311H227.877V72.3929H291.16V71.5311Z" fill="#E6635E"/>
        <path d="M221.436 78.4258H220.575V136.599H221.436V78.4258Z" fill="#E6635E"/>
        <path d="M135.357 110.744C133.91 110.744 132.495 110.314 131.292 109.51C130.089 108.705 129.151 107.561 128.597 106.222C128.043 104.883 127.898 103.411 128.181 101.989C128.463 100.568 129.16 99.2632 130.183 98.2387C131.206 97.2142 132.51 96.5166 133.929 96.2339C135.349 95.9512 136.82 96.0963 138.157 96.6508C139.494 97.2052 140.636 98.1441 141.44 99.3488C142.244 100.553 142.674 101.97 142.674 103.419C142.671 105.361 141.9 107.223 140.528 108.596C139.156 109.969 137.297 110.742 135.357 110.744ZM135.357 96.955C134.08 96.955 132.832 97.3341 131.77 98.0443C130.708 98.7545 129.881 99.764 129.392 100.945C128.904 102.126 128.776 103.426 129.025 104.68C129.274 105.933 129.889 107.085 130.792 107.989C131.695 108.893 132.845 109.509 134.097 109.758C135.35 110.008 136.648 109.88 137.827 109.39C139.007 108.901 140.015 108.073 140.725 107.01C141.434 105.947 141.813 104.697 141.813 103.419C141.811 101.705 141.13 100.062 139.92 98.8502C138.709 97.6385 137.068 96.9569 135.357 96.955Z" fill="#E6635E"/>
        <path d="M106.09 219.764C104.643 219.764 103.228 219.335 102.025 218.53C100.822 217.725 99.8839 216.581 99.3302 215.242C98.7764 213.904 98.6315 212.431 98.9138 211.01C99.1961 209.589 99.893 208.284 100.916 207.259C101.939 206.235 103.243 205.537 104.662 205.254C106.082 204.972 107.553 205.117 108.89 205.671C110.227 206.226 111.37 207.165 112.174 208.369C112.978 209.574 113.407 210.99 113.407 212.439C113.404 214.381 112.633 216.243 111.261 217.617C109.89 218.99 108.03 219.762 106.09 219.764ZM106.09 205.975C104.813 205.975 103.565 206.354 102.503 207.065C101.442 207.775 100.614 208.784 100.125 209.965C99.6368 211.147 99.5089 212.446 99.758 213.7C100.007 214.954 100.622 216.106 101.525 217.01C102.428 217.913 103.578 218.529 104.83 218.778C106.083 219.028 107.381 218.9 108.56 218.411C109.74 217.921 110.748 217.093 111.458 216.03C112.167 214.967 112.546 213.717 112.546 212.439C112.544 210.725 111.863 209.082 110.653 207.871C109.443 206.659 107.802 205.977 106.09 205.975Z" fill="#E6635E"/>
        <path d="M142.173 157.713C142.173 161.246 139.314 164.108 135.787 164.108C132.261 164.108 129.401 161.246 129.401 157.713C129.401 154.181 132.261 151.319 135.787 151.319C139.314 151.319 142.173 154.181 142.173 157.713Z" stroke="#E6635E"/>
        <path d="M384.986 102.988H313.54V103.849H384.986V102.988Z" fill="#E6635E"/>
        <path d="M307.085 110.249H306.224V150.819H307.085V110.249Z" fill="#E6635E"/>
        <path d="M299.337 157.282H242.095V158.144H299.337V157.282Z" fill="#E6635E"/>
        <path d="M402.202 161.161H342.807V162.022H402.202V161.161Z" fill="#E6635E"/>
        <path d="M336.782 168.917H335.921V205.544H336.782V168.917Z" fill="#E6635E"/>
        <path d="M329.035 212.008H227.892V212.87H329.035V212.008Z" fill="#E6635E"/>
        <path d="M221.436 178.828H220.575V205.544H221.436V178.828Z" fill="#E6635E"/>
        <path d="M313.04 103.419C313.04 106.951 310.181 109.813 306.654 109.813C303.128 109.813 300.268 106.951 300.268 103.419C300.268 99.8864 303.128 97.024 306.654 97.024C310.181 97.024 313.04 99.8864 313.04 103.419Z" stroke="#E6635E"/>
        <path d="M298.046 78.8567C296.599 78.8567 295.185 78.427 293.981 77.6221C292.778 76.8172 291.84 75.6731 291.287 74.3345C290.733 72.996 290.588 71.5231 290.87 70.1021C291.152 68.681 291.849 67.3758 292.873 66.3513C293.896 65.3268 295.2 64.6291 296.619 64.3464C298.038 64.0638 299.509 64.2089 300.846 64.7633C302.183 65.3178 303.326 66.2567 304.13 67.4614C304.934 68.666 305.363 70.0823 305.363 71.5312C305.361 73.4734 304.589 75.3354 303.218 76.7087C301.846 78.082 299.986 78.8545 298.046 78.8567ZM298.046 65.0675C296.769 65.0675 295.521 65.4466 294.46 66.1568C293.398 66.8671 292.57 67.8766 292.082 69.0576C291.593 70.2387 291.465 71.5384 291.714 72.7922C291.963 74.046 292.578 75.1977 293.481 76.1017C294.384 77.0056 295.534 77.6212 296.787 77.8706C298.039 78.12 299.337 77.9921 300.517 77.5028C301.697 77.0136 302.705 76.1851 303.414 75.1222C304.124 74.0593 304.502 72.8096 304.502 71.5312C304.5 69.8175 303.82 68.1745 302.609 66.9628C301.399 65.751 299.758 65.0694 298.046 65.0675Z" fill="#E6635E"/>
        <path d="M221.005 78.8567C219.558 78.8567 218.144 78.427 216.941 77.6221C215.737 76.8172 214.8 75.6731 214.246 74.3345C213.692 72.996 213.547 71.5231 213.829 70.1021C214.112 68.681 214.809 67.3758 215.832 66.3513C216.855 65.3268 218.159 64.6291 219.578 64.3464C220.997 64.0638 222.469 64.2089 223.805 64.7633C225.142 65.3178 226.285 66.2567 227.089 67.4614C227.893 68.666 228.322 70.0823 228.322 71.5312C228.32 73.4734 227.548 75.3354 226.177 76.7087C224.805 78.082 222.945 78.8545 221.005 78.8567ZM221.005 65.0675C219.729 65.0675 218.48 65.4466 217.419 66.1568C216.357 66.8671 215.53 67.8766 215.041 69.0576C214.552 70.2387 214.424 71.5384 214.674 72.7922C214.923 74.046 215.538 75.1977 216.44 76.1017C217.343 77.0056 218.494 77.6212 219.746 77.8706C220.998 78.12 222.296 77.9921 223.476 77.5028C224.656 77.0136 225.664 76.1851 226.373 75.1222C227.083 74.0593 227.461 72.8096 227.461 71.5312C227.46 69.8175 226.779 68.1745 225.568 66.9628C224.358 65.751 222.717 65.0694 221.005 65.0675Z" fill="#E6635E"/>
        <path d="M335.921 169.348C334.474 169.348 333.059 168.918 331.856 168.113C330.653 167.309 329.715 166.164 329.161 164.826C328.608 163.487 328.463 162.014 328.745 160.593C329.027 159.172 329.724 157.867 330.747 156.843C331.771 155.818 333.074 155.12 334.494 154.838C335.913 154.555 337.384 154.7 338.721 155.255C340.058 155.809 341.201 156.748 342.005 157.953C342.809 159.157 343.238 160.574 343.238 162.023C343.236 163.965 342.464 165.827 341.092 167.2C339.721 168.573 337.861 169.346 335.921 169.348ZM335.921 155.559C334.644 155.559 333.396 155.938 332.334 156.648C331.273 157.358 330.445 158.368 329.957 159.549C329.468 160.73 329.34 162.03 329.589 163.284C329.838 164.537 330.453 165.689 331.356 166.593C332.259 167.497 333.409 168.113 334.662 168.362C335.914 168.611 337.212 168.483 338.392 167.994C339.571 167.505 340.58 166.676 341.289 165.614C341.998 164.551 342.377 163.301 342.377 162.023C342.375 160.309 341.694 158.666 340.484 157.454C339.274 156.242 337.633 155.561 335.921 155.559Z" fill="#E6635E"/>
        <path d="M342.307 212.439C342.307 215.971 339.447 218.834 335.921 218.834C332.394 218.834 329.535 215.971 329.535 212.439C329.535 208.907 332.394 206.045 335.921 206.045C339.447 206.045 342.307 208.907 342.307 212.439Z" stroke="#E6635E"/>
        <path d="M221.005 219.764C219.558 219.764 218.144 219.335 216.941 218.53C215.737 217.725 214.8 216.581 214.246 215.242C213.692 213.904 213.547 212.431 213.829 211.01C214.112 209.589 214.809 208.284 215.832 207.259C216.855 206.235 218.159 205.537 219.578 205.254C220.997 204.972 222.469 205.117 223.805 205.671C225.142 206.226 226.285 207.165 227.089 208.369C227.893 209.574 228.322 210.99 228.322 212.439C228.32 214.381 227.548 216.243 226.177 217.617C224.805 218.99 222.945 219.762 221.005 219.764ZM221.005 205.975C219.729 205.975 218.48 206.354 217.419 207.065C216.357 207.775 215.53 208.784 215.041 209.965C214.552 211.147 214.424 212.446 214.674 213.7C214.923 214.954 215.538 216.106 216.44 217.01C217.343 217.913 218.494 218.529 219.746 218.778C220.998 219.028 222.296 218.9 223.476 218.411C224.656 217.921 225.664 217.093 226.373 216.03C227.083 214.967 227.461 213.717 227.461 212.439C227.46 210.725 226.779 209.082 225.568 207.871C224.358 206.659 222.717 205.977 221.005 205.975Z" fill="#E6635E"/>
        <path d="M306.224 165.039C304.777 165.039 303.362 164.609 302.159 163.804C300.956 162.999 300.018 161.855 299.464 160.517C298.91 159.178 298.765 157.705 299.048 156.284C299.33 154.863 300.027 153.558 301.05 152.534C302.073 151.509 303.377 150.811 304.796 150.529C306.216 150.246 307.687 150.391 309.024 150.946C310.361 151.5 311.503 152.439 312.307 153.644C313.111 154.848 313.54 156.265 313.54 157.713C313.538 159.656 312.767 161.518 311.395 162.891C310.023 164.264 308.164 165.037 306.224 165.039ZM306.224 151.25C304.947 151.25 303.699 151.629 302.637 152.339C301.575 153.049 300.748 154.059 300.259 155.24C299.771 156.421 299.643 157.721 299.892 158.974C300.141 160.228 300.756 161.38 301.659 162.284C302.562 163.188 303.712 163.803 304.964 164.053C306.217 164.302 307.515 164.174 308.694 163.685C309.874 163.196 310.882 162.367 311.592 161.304C312.301 160.242 312.68 158.992 312.68 157.713C312.678 156 311.997 154.357 310.787 153.145C309.576 151.933 307.935 151.252 306.224 151.25Z" fill="#E6635E"/>
        <path d="M106.09 147.372C104.387 147.372 102.723 147.877 101.308 148.824C99.892 149.771 98.7886 151.117 98.1371 152.692C97.4856 154.267 97.3152 155.999 97.6473 157.671C97.9794 159.343 98.7993 160.879 100.003 162.084C101.207 163.289 102.741 164.11 104.41 164.442C106.08 164.775 107.811 164.604 109.384 163.952C110.957 163.3 112.301 162.195 113.247 160.778C114.193 159.361 114.698 157.694 114.698 155.99C114.691 153.706 113.782 151.518 112.169 149.903C110.556 148.288 108.371 147.378 106.09 147.372ZM106.09 149.957C106.601 149.957 107.1 150.109 107.525 150.393C107.949 150.677 108.28 151.081 108.476 151.553C108.671 152.026 108.722 152.545 108.623 153.047C108.523 153.548 108.277 154.009 107.916 154.371C107.555 154.732 107.095 154.979 106.594 155.078C106.093 155.178 105.573 155.127 105.102 154.931C104.63 154.735 104.226 154.404 103.943 153.979C103.659 153.554 103.507 153.054 103.507 152.543C103.51 151.858 103.783 151.201 104.266 150.717C104.75 150.232 105.406 149.959 106.09 149.957ZM106.09 162.404C105.07 162.399 104.066 162.145 103.166 161.664C102.266 161.184 101.497 160.49 100.925 159.644C100.966 157.921 104.368 156.972 106.09 156.972C107.811 156.972 111.213 157.921 111.255 159.644C110.682 160.49 109.913 161.182 109.013 161.663C108.113 162.144 107.11 162.398 106.09 162.404Z" fill="#E6635E"/>
        <path d="M135.787 29.7329C134.085 29.7329 132.42 30.2384 131.005 31.1853C129.589 32.1323 128.486 33.4783 127.834 35.0531C127.183 36.6279 127.012 38.3607 127.345 40.0325C127.677 41.7042 128.497 43.2399 129.7 44.4451C130.904 45.6504 132.438 46.4712 134.108 46.8038C135.778 47.1363 137.508 46.9656 139.081 46.3133C140.654 45.661 141.998 44.5564 142.944 43.1392C143.89 41.7219 144.395 40.0557 144.395 38.3511C144.388 36.0675 143.479 33.8793 141.866 32.2645C140.254 30.6497 138.068 29.7396 135.787 29.7329ZM135.787 32.3184C136.298 32.3184 136.797 32.47 137.222 32.7541C137.646 33.0382 137.977 33.442 138.173 33.9144C138.368 34.3869 138.419 34.9067 138.32 35.4082C138.22 35.9098 137.974 36.3705 137.613 36.732C137.252 37.0936 136.792 37.3399 136.291 37.4396C135.79 37.5394 135.271 37.4882 134.799 37.2925C134.327 37.0968 133.924 36.7654 133.64 36.3403C133.356 35.9151 133.205 35.4152 133.205 34.9038C133.207 34.2188 133.48 33.5625 133.964 33.0782C134.447 32.5938 135.103 32.3207 135.787 32.3184ZM135.787 44.7651C134.767 44.7604 133.763 44.5066 132.863 44.0258C131.963 43.5449 131.194 42.8515 130.622 42.0056C130.664 40.2819 134.065 39.3331 135.787 39.3331C137.509 39.3331 140.91 40.2819 140.952 42.0056C140.379 42.8508 139.61 43.5438 138.71 44.0246C137.81 44.5054 136.807 44.7595 135.787 44.7651Z" fill="#E6635E"/>
        <path d="M298.046 0C296.344 0 294.679 0.505452 293.264 1.45243C291.848 2.39942 290.745 3.7454 290.093 5.32017C289.442 6.89495 289.271 8.62778 289.604 10.2996C289.936 11.9713 290.756 13.5069 291.959 14.7122C293.163 15.9175 294.697 16.7383 296.367 17.0708C298.037 17.4034 299.767 17.2327 301.34 16.5804C302.913 15.9281 304.257 14.8235 305.203 13.4062C306.149 11.989 306.654 10.3227 306.654 8.61822C306.647 6.33458 305.738 4.14639 304.125 2.5316C302.513 0.916819 300.327 0.00668446 298.046 0ZM298.046 2.58547C298.557 2.58547 299.056 2.7371 299.481 3.0212C299.905 3.30529 300.236 3.70909 300.432 4.18152C300.627 4.65395 300.679 5.1738 300.579 5.67533C300.479 6.17687 300.233 6.63755 299.872 6.99914C299.511 7.36072 299.051 7.60696 298.55 7.70672C298.049 7.80648 297.53 7.75528 297.058 7.55959C296.586 7.36391 296.183 7.03252 295.899 6.60734C295.615 6.18217 295.464 5.68229 295.464 5.17093C295.466 4.48593 295.739 3.82963 296.223 3.34526C296.706 2.86088 297.362 2.58775 298.046 2.58547ZM298.046 15.0322C297.026 15.0275 296.022 14.7737 295.122 14.2929C294.222 13.812 293.453 13.1186 292.881 12.2727C292.923 10.549 296.325 9.6002 298.046 9.6002C299.768 9.6002 303.17 10.549 303.211 12.2727C302.638 13.1179 301.869 13.8109 300.969 14.2917C300.069 14.7725 299.066 15.0266 298.046 15.0322Z" fill="#E6635E"/>
        <path d="M397.037 94.3695C395.335 94.3695 393.67 94.875 392.255 95.8219C390.839 96.7689 389.736 98.1149 389.084 99.6897C388.433 101.264 388.262 102.997 388.595 104.669C388.927 106.341 389.747 107.876 390.95 109.082C392.154 110.287 393.688 111.108 395.358 111.44C397.028 111.773 398.758 111.602 400.331 110.95C401.904 110.298 403.248 109.193 404.194 107.776C405.14 106.359 405.645 104.692 405.645 102.988C405.638 100.704 404.729 98.5159 403.116 96.9011C401.504 95.2863 399.318 94.3762 397.037 94.3695ZM397.037 96.955C397.548 96.955 398.047 97.1066 398.472 97.3907C398.896 97.6748 399.227 98.0786 399.423 98.551C399.618 99.0235 399.669 99.5433 399.57 100.045C399.47 100.546 399.224 101.007 398.863 101.369C398.502 101.73 398.042 101.976 397.541 102.076C397.04 102.176 396.521 102.125 396.049 101.929C395.577 101.733 395.174 101.402 394.89 100.977C394.606 100.552 394.455 100.052 394.455 99.5404C394.457 98.8554 394.73 98.1991 395.214 97.7148C395.697 97.2304 396.353 96.9573 397.037 96.955ZM397.037 109.402C396.017 109.397 395.013 109.143 394.113 108.662C393.213 108.182 392.444 107.488 391.872 106.642C391.914 104.919 395.316 103.97 397.037 103.97C398.759 103.97 402.16 104.919 402.202 106.642C401.629 107.487 400.86 108.18 399.96 108.661C399.06 109.142 398.057 109.396 397.037 109.402Z" fill="#E6635E"/>
        <path d="M413.392 152.542C411.69 152.542 410.025 153.048 408.61 153.995C407.194 154.942 406.091 156.288 405.439 157.863C404.788 159.437 404.617 161.17 404.95 162.842C405.282 164.514 406.102 166.049 407.305 167.255C408.509 168.46 410.043 169.281 411.713 169.613C413.383 169.946 415.113 169.775 416.686 169.123C418.259 168.471 419.603 167.366 420.549 165.949C421.495 164.531 422 162.865 422 161.161C421.993 158.877 421.084 156.689 419.471 155.074C417.859 153.459 415.673 152.549 413.392 152.542ZM413.392 155.128C413.903 155.128 414.402 155.28 414.827 155.564C415.251 155.848 415.582 156.252 415.778 156.724C415.973 157.196 416.024 157.716 415.925 158.218C415.825 158.719 415.579 159.18 415.218 159.542C414.857 159.903 414.397 160.149 413.896 160.249C413.395 160.349 412.876 160.298 412.404 160.102C411.932 159.906 411.529 159.575 411.245 159.15C410.961 158.725 410.81 158.225 410.81 157.713C410.812 157.028 411.085 156.372 411.569 155.888C412.052 155.403 412.708 155.13 413.392 155.128ZM413.392 167.575C412.372 167.57 411.368 167.316 410.468 166.835C409.568 166.354 408.799 165.661 408.227 164.815C408.269 163.092 411.671 162.143 413.392 162.143C415.114 162.143 418.515 163.092 418.557 164.815C417.984 165.66 417.215 166.353 416.315 166.834C415.415 167.315 414.412 167.569 413.392 167.575Z" fill="#E6635E"/>
        <path d="M65.42 315.984C64.1953 327.135 -0.0973137 326.199 0.00011061 315.984C1.22475 304.834 65.5174 305.77 65.42 315.984Z" fill="#E6E6E6"/>
        <path d="M44.6552 287.916L47.2617 293.569L52.0395 293.135L55.0803 283.132L50.302 280.523L44.6552 287.916Z" fill="#FFB8B8"/>
        <path d="M28.252 300.937L28.1491 304.876L35.5334 305.311V300.528L28.252 300.937Z" fill="#FFB8B8"/>
        <path d="M30.7552 229.205L32.4927 263.996L28.1491 301.832L41.1802 303.572L49.4335 255.734L52.0395 223.116L30.7552 229.205Z" fill="#525252"/>
        <path d="M10.3398 216.593C10.3398 216.593 5.12729 250.95 15.9866 262.257C26.846 273.564 41.6147 293.569 41.6147 293.569L52.0397 280.522L25.5429 252.254L30.7554 233.119L52.0397 223.116L48.5647 199.197L17.2898 198.762L10.3398 216.593Z" fill="#525252"/>
        <path d="M35.9679 137.007C41.2456 137.007 45.5241 132.724 45.5241 127.44C45.5241 122.155 41.2456 117.872 35.9679 117.872C30.6901 117.872 26.4116 122.155 26.4116 127.44C26.4116 132.724 30.6901 137.007 35.9679 137.007Z" fill="#FFB8B8"/>
        <path d="M27.7147 129.614C27.7147 129.614 27.2804 143.096 25.1085 144.835C22.9366 146.575 32.9272 153.968 32.9272 153.968L39.4428 143.531V133.963L27.7147 129.614Z" fill="#FFB8B8"/>
        <path d="M32.0584 147.88L26.7848 139.907L23.8052 143.966L19.4616 156.143L22.9366 203.546L43.352 203.981L45.9585 149.619L39.4427 141.791L32.0584 147.88Z" fill="#E6635E"/>
        <path d="M54.2115 150.924L57.6866 150.489C57.6866 150.489 58.5553 150.924 58.9897 153.968C59.4241 157.012 64.6366 183.976 64.6366 183.976L57.6866 217.028L49.8678 206.59L54.6459 188.325L49.8678 170.059L54.2115 150.924Z" fill="#525252"/>
        <path d="M9.90555 150.489H7.29908L0.783752 185.715L6.86481 213.114L12.9459 203.111L11.2084 192.239L12.0773 182.671L15.1181 177.017L9.90555 150.489Z" fill="#525252"/>
        <path d="M48.5647 291.83C48.5647 291.83 45.9585 290.96 45.9585 292.699C45.9585 294.439 47.696 299.658 47.696 299.658C47.696 299.658 45.0897 315.749 48.9991 314.879C52.9085 314.009 55.9491 306.616 56.3835 304.442C56.8178 302.267 58.9897 290.96 58.9897 290.96C58.9897 290.96 62.4647 282.697 60.2928 282.262C58.1209 281.827 52.0397 280.088 52.0397 280.088C52.0397 280.088 55.5147 290.96 48.5647 291.83Z" fill="#525252"/>
        <path d="M35.9678 305.311C35.9678 305.311 29.0179 300.962 27.7147 304.442C26.8505 306.979 26.2678 309.604 25.9772 312.27C25.9772 312.27 24.2397 317.923 31.1897 317.054C38.1397 316.184 37.271 316.184 37.7053 313.574C38.1397 310.965 35.9678 305.311 35.9678 305.311Z" fill="#525252"/>
        <path d="M30.321 127.44L32.0585 127.005C32.0585 127.005 33.3616 119.611 36.4022 120.481C39.4429 121.351 47.2616 122.221 47.2616 118.742C47.2616 115.262 39.8772 112.218 35.5335 112.653C31.1898 113.088 23.8054 114.393 24.2398 120.916C24.6741 127.44 27.4771 133.785 27.4771 133.785L27.7034 129.918L30.321 127.44Z" fill="#525252"/>
        <path d="M39.4427 153.098L32.0584 147.88L39.4427 141.791L42.0066 144.871L39.4427 153.098Z" fill="#E6635E"/>
        <path d="M25.5427 152.664L32.0584 147.88L26.8459 140.052L23.8052 143.966L25.5427 152.664Z" fill="#E6635E"/>
        <path d="M57.2522 150.489L43.3522 144.835L40.0944 142.443L30.321 185.715L23.8054 166.145L25.7601 141.139L7.73354 150.489L13.8148 180.062L14.6835 191.369L12.0773 200.502C12.0773 200.502 2.95543 207.025 5.99605 213.984C9.03667 220.942 12.5117 221.377 12.5117 221.377C12.5117 221.377 27.2804 207.46 28.1491 203.981C29.0179 200.502 30.321 194.413 30.321 194.413C30.321 194.413 37.7054 222.247 46.3928 221.812C55.0803 221.377 55.0803 212.244 55.0803 212.244L52.9084 202.676L49.4335 192.674L51.171 176.148L57.2522 150.489Z" fill="#525252"/>
        <path d="M229.167 165.871C233.667 161.258 233.667 153.571 229.167 148.958M212.833 149.129C208.333 153.742 208.333 161.429 212.833 166.042" stroke="#E6635E" stroke-width="1.5" stroke-miterlimit="10" stroke-linecap="round" stroke-linejoin="round"/>
        <path d="M217.167 160.233C217.167 161.771 218.333 162.967 219.833 162.967H222.667C223.833 162.967 225 161.942 225 160.575C225 159.037 224.333 158.525 223.5 158.183L218.833 156.475C217.667 156.304 217.167 155.792 217.167 154.425C217.167 153.058 218.167 152.033 219.5 152.033H222.5C224 152.033 225.167 153.229 225.167 154.767M221 150.325V164.675" stroke="#E6635E" stroke-width="1.5" stroke-linecap="round" stroke-linejoin="round"/>
        <path d="M221 174.583C230.205 174.583 237.667 166.935 237.667 157.5C237.667 148.065 230.205 140.417 221 140.417C211.795 140.417 204.333 148.065 204.333 157.5C204.333 166.935 211.795 174.583 221 174.583Z" stroke="#E6635E" stroke-width="1.5" stroke-miterlimit="10" stroke-linecap="round" stroke-linejoin="round"/>
    </g>
    <defs>
        <clipPath id="clip0_31_182">
            <rect width="422" height="324" fill="white"/>
        </clipPath>
    </defs>
</svg>
