<svg width="509" height="384" viewBox="0 0 509 384" fill="none" xmlns="http://www.w3.org/2000/svg">
    <g clip-path="url(#clip0_84_295)">
        <path opacity="0.24" d="M137.945 366.165C234.765 382.129 333.728 379.615 429.614 358.755C441.901 356.072 454.452 352.952 464.789 345.776C473.684 339.607 480.416 330.784 486.204 321.637C507.873 287.364 517.844 242.114 499.008 206.204C478.994 168.059 434.072 151.634 401.04 123.998C375.655 102.796 357.245 74.7127 337.292 48.3473C329.108 37.5125 320.243 26.6167 308.19 20.3658C298.27 15.2838 286.958 13.6576 275.89 12.1533C230.348 5.96347 178.998 1.26771 143.103 30.0724C97.714 66.5205 97.5413 141.084 50.964 176.007C42.0283 182.705 31.7624 187.574 23.3445 194.912C-7.01655 221.359 -6.24483 279.497 16.8865 310.395C43.7951 346.335 96.4244 359.284 137.945 366.165Z" fill="#E6635E"/>
        <path d="M349.051 91.3409L338.034 92.1846L337.008 78.7274L222.499 209.975L159.827 158.24L10.6518 294.499L3.20874 286.357L159.462 143.594L221.209 194.597L327.758 72.4562L312.841 76.5828L309.927 65.931L346.37 55.8585L349.051 91.3409Z" fill="#E6635E"/>
        <path d="M349.051 91.3409L338.034 92.1846L337.008 78.7274L222.499 209.975L159.827 158.24L10.6518 294.499L3.20874 286.357L159.462 143.594L221.209 194.597L327.758 72.4562L312.841 76.5828L309.927 65.931L346.37 55.8585L349.051 91.3409Z" fill="url(#paint0_linear_84_295)"/>
        <path d="M54.4063 254.29C63.1693 260.033 68.9776 269.312 77.0298 276.021L69.9219 295.332L65.2611 290.25C61.2705 285.941 57.2291 281.59 52.3856 278.257C47.542 274.923 41.7541 272.717 35.8951 273.104C35.8951 273.104 38.8602 255.184 40.3325 253.416C44.6481 248.222 48.8824 250.672 54.4063 254.29Z" fill="#E6635E"/>
        <path d="M42.9625 255.032L41.4799 265.999C42.4802 266.222 43.3835 266.757 44.059 267.529C44.7345 268.3 45.1471 269.266 45.237 270.288C45.237 270.288 59.9606 275.157 65.4033 285.605C65.4033 285.605 69.0994 284.589 70.4804 286.256L73.3946 279.141C73.3946 279.141 71.4552 276.681 71.973 274.669C71.973 274.669 57.8993 255.886 49.0855 254.29C47.1564 255.115 45.0324 255.372 42.9625 255.032Z" fill="white"/>
        <path d="M154.913 65.189H137.112V310.497H154.913V65.189Z" fill="#E6635E"/>
        <path d="M249.337 35.744H228.652V310.497H249.337V35.744Z" fill="#E6635E"/>
        <path d="M303.682 310.507H322.965L322.965 35.7541H303.682L303.682 310.507Z" fill="#E6635E"/>
        <path d="M154.913 65.189H137.112V310.497H154.913V65.189Z" fill="url(#paint1_linear_84_295)"/>
        <path d="M249.337 35.744H228.652V310.497H249.337V35.744Z" fill="url(#paint2_linear_84_295)"/>
        <path d="M303.682 310.507H322.965L322.965 35.7541H303.682L303.682 310.507Z" fill="url(#paint3_linear_84_295)"/>
        <path d="M115.179 158.718H374.447C376.365 158.718 378.266 159.096 380.038 159.831C381.811 160.566 383.422 161.644 384.779 163.002C386.136 164.36 387.212 165.972 387.946 167.747C388.681 169.521 389.058 171.423 389.058 173.344V330.703H100.527V173.344C100.527 171.42 100.906 169.515 101.643 167.737C102.38 165.96 103.46 164.346 104.821 162.987C106.182 161.629 107.798 160.552 109.575 159.82C111.352 159.087 113.257 158.713 115.179 158.718Z" fill="#E6635E"/>
        <path d="M373.512 171.179H116.905V317.51H373.512V171.179Z" fill="white"/>
        <path opacity="0.26" d="M128.288 206.845L129.304 210.3C129.304 210.3 168.722 209.782 172.175 208.267C173.221 207.755 174.146 207.028 174.892 206.133C175.637 205.238 176.185 204.195 176.5 203.074L175.119 194.251L166.295 178.497L128.288 206.845Z" fill="url(#paint4_linear_84_295)"/>
        <path d="M82.6857 329.961H406.168V330.977C406.168 336.908 403.815 342.595 399.625 346.789C395.436 350.982 389.754 353.338 383.829 353.338H105.015C99.0901 353.338 93.408 350.982 89.2186 346.789C85.0292 342.595 82.6756 336.908 82.6756 330.977V329.961H82.6857Z" fill="#E6635E"/>
        <path d="M82.6857 329.961H406.168V330.977C406.168 336.908 403.815 342.595 399.625 346.789C395.436 350.982 389.754 353.338 383.829 353.338H105.015C99.0901 353.338 93.408 350.982 89.2186 346.789C85.0292 342.595 82.6756 336.908 82.6756 330.977V329.961H82.6857Z" fill="url(#paint5_linear_84_295)"/>
        <path d="M117.565 45.7961C118.479 44.1597 119.596 42.564 119.901 40.7141C120.206 38.8643 119.342 36.6485 117.525 36.181C115.707 35.7135 113.463 37.36 111.615 36.5571C110.437 36.0489 109.889 34.7174 109.28 33.5892C107.927 30.9568 105.603 28.9553 102.801 28.0092C101.404 27.5644 99.9158 27.4898 98.4814 27.7926C97.047 28.0954 95.7155 28.7654 94.6169 29.737C94.0437 30.3774 93.4151 30.9658 92.7384 31.4954C91.9206 31.9119 91.0053 32.0988 90.0898 32.0361C89.1744 31.9735 88.293 31.6637 87.5394 31.1397C86.2803 30.3875 84.7978 29.2593 83.4778 29.9911C83.1829 30.1932 82.9338 30.4551 82.7466 30.7598C82.5595 31.0644 82.4384 31.4051 82.3913 31.7597C81.7719 34.9715 84.1276 37.9292 85.143 41.08C86.4529 45.0745 85.6101 49.4247 84.7572 53.5411C83.5184 59.3549 82.1983 65.372 78.4514 70.0169C74.7045 74.6619 68.9572 77.2029 65.0885 81.7055C61.2197 86.2081 59.5748 92.2049 58.3867 98.039C57.8793 99.7745 57.8793 101.619 58.3867 103.355C58.9413 104.514 59.7215 105.551 60.6816 106.404C64.4792 110.297 68.4597 114.291 73.5469 116.212C79.0404 118.245 85.1126 117.676 90.9817 117.564C95.0434 117.483 99.1558 117.656 103.167 116.964C107.178 116.273 111.189 114.627 113.819 111.527C116.087 108.617 117.358 105.053 117.444 101.363C117.519 97.7026 117.244 94.0437 116.621 90.4364C115.572 82.6101 114.831 74.7567 114.397 66.8762C113.981 59.5887 113.879 52.4027 117.565 45.7961Z" fill="#E6635E"/>
        <path opacity="0.26" d="M77.7406 76.6946C77.1618 77.8838 76.6135 79.4084 77.4665 80.4248L86.9302 73.6759C87.1216 73.5017 87.3722 73.4072 87.6308 73.4117C87.9355 73.4117 88.1182 73.7674 88.2604 74.0418L90.6365 78.7579L95.1348 72.3445L104.436 81.6343C105.289 82.4881 106.65 83.3724 107.553 82.5694C108.305 81.9088 107.949 80.6789 107.553 79.7642C104.781 73.7471 103.837 66.0021 102.365 59.548C101.786 57.0172 101.491 54.466 100.902 51.9148C99.4097 45.4505 93.6015 41.3443 88.7173 36.8112C89.6211 39.8604 90.4232 42.9705 91.1239 46.0807L88.7376 45.044C85.534 50.4674 83.5002 56.5022 82.767 62.7598C82.0968 67.9638 80.066 71.9481 77.7406 76.6946Z" fill="url(#paint6_linear_84_295)"/>
        <path d="M90.2201 45.9079C91.9601 46.3892 93.658 47.0113 95.2972 47.7679C96.1113 48.1498 96.8406 48.691 97.4423 49.3596C98.044 50.0282 98.5058 50.8106 98.8004 51.6608C98.9242 51.9886 98.9574 52.3438 98.8967 52.689C98.8359 53.0342 98.6834 53.3566 98.4552 53.6224C98.1578 53.8152 97.8211 53.9391 97.4697 53.9848C97.1183 54.0305 96.7611 53.997 96.4244 53.8867C92.4015 53.1825 88.447 52.1317 84.6049 50.746C83.5766 50.434 82.6133 49.9381 81.7617 49.2824C81.3376 48.9509 81.0024 48.5192 80.7862 48.026C80.57 47.5328 80.4795 46.9936 80.5229 46.4568C81.2641 40.8869 87.5293 45.044 90.2201 45.9079Z" fill="url(#paint7_linear_84_295)"/>
        <path d="M89.2047 52.0165C90.9426 52.5041 92.6401 53.1259 94.2818 53.8765C95.0946 54.2585 95.8225 54.7999 96.4225 55.4685C97.0225 56.1372 97.4824 56.9196 97.7749 57.7693C97.903 58.0975 97.9396 58.4544 97.8805 58.8017C97.8215 59.1491 97.6691 59.4738 97.4398 59.7411C97.1418 59.9326 96.8051 60.0556 96.454 60.1013C96.1028 60.147 95.7459 60.1143 95.4089 60.0054C91.3977 59.2938 87.4539 58.2431 83.6199 56.8647C82.5885 56.5528 81.6219 56.057 80.7666 55.4011C80.3437 55.0662 80.0096 54.6325 79.7936 54.138C79.5776 53.6435 79.4863 53.1034 79.5277 52.5653C80.3299 47.0056 86.6052 51.1424 89.2047 52.0165Z" fill="url(#paint8_linear_84_295)"/>
        <path d="M88.0878 57.4542C89.8254 57.9384 91.5229 58.5568 93.1649 59.3041C93.9783 59.6877 94.7066 60.2308 95.3066 60.9012C95.9066 61.5716 96.3661 62.3557 96.6579 63.207C96.7839 63.5346 96.8183 63.8902 96.7575 64.2359C96.6966 64.5815 96.5429 64.904 96.3127 65.1687C96.0147 65.3602 95.678 65.4832 95.3269 65.5289C94.9757 65.5746 94.6188 65.5418 94.2818 65.433C90.2601 64.7378 86.3057 63.6972 82.4623 62.3228C81.4309 62.0109 80.4643 61.515 79.609 60.8592C79.1862 60.5243 78.8521 60.0905 78.636 59.596C78.42 59.1016 78.3287 58.5615 78.3702 58.0234C79.1724 52.4332 85.4477 56.5598 88.0878 57.4542Z" fill="url(#paint9_linear_84_295)"/>
        <path d="M86.8388 62.8614C88.5787 63.3427 90.2767 63.9648 91.9159 64.7215C92.7289 65.1048 93.4575 65.6465 94.059 66.3149C94.6605 66.9832 95.1229 67.7649 95.4191 68.6143C95.5428 68.9421 95.5761 69.2973 95.5153 69.6425C95.4546 69.9877 95.3021 70.3101 95.0738 70.5759C94.7785 70.7732 94.442 70.9004 94.0901 70.948C93.7382 70.9955 93.3801 70.9621 93.043 70.8503C89.0178 70.1419 85.0602 69.0912 81.2134 67.7097C80.1851 67.3977 79.2218 66.9018 78.3702 66.2461C77.9453 65.913 77.6097 65.4795 77.3935 64.9846C77.1772 64.4896 77.0872 63.9487 77.1314 63.4103C77.9335 57.8506 84.1987 61.967 86.8388 62.8614Z" fill="url(#paint10_linear_84_295)"/>
        <path d="M120.541 54.8014C115.24 46.8329 105.451 43.0112 95.9573 41.8322C94.3529 41.6289 92.251 41.8322 91.7839 43.3466C91.6348 43.9722 91.7216 44.6309 92.0276 45.1965C93.6421 48.6014 98.6786 49.262 100.283 52.667C100.717 53.779 100.951 54.9594 100.973 56.1532C101.837 66.3172 104.832 76.9284 112.407 83.7586C113.614 84.9603 115.095 85.8498 116.723 86.3504C118.117 86.63 119.549 86.6712 120.957 86.4724C122.988 86.2895 125.019 86.1065 127.049 85.7914C129.08 85.4763 129.72 85.2934 129.334 83.2403C128.715 80.0284 127.303 76.8573 126.623 73.6048C125.252 67.171 124.257 60.3916 120.541 54.8014Z" fill="url(#paint11_linear_84_295)"/>
        <path d="M132.391 82.9862C132.486 83.2287 132.507 83.4939 132.451 83.7485C132.328 84.0027 132.125 84.2097 131.873 84.338L119.688 92.2659C119.21 92.6408 118.636 92.8733 118.033 92.9367C117.463 92.8806 116.923 92.6578 116.479 92.2964C113.96 90.4964 112.123 87.8955 111.27 84.9173C111.206 84.7822 111.174 84.6347 111.174 84.4853C111.174 84.336 111.206 84.1885 111.27 84.0534C111.442 83.833 111.687 83.6816 111.96 83.6265C116.743 81.9901 120.703 78.2396 125.161 75.9222C130.512 73.1474 131.06 78.4835 132.391 82.9862Z" fill="white"/>
        <path d="M381.341 41.822C380.413 40.459 379.726 38.9462 379.31 37.3498C379.046 35.7134 379.798 33.7518 381.392 33.3452C382.986 32.9387 384.977 34.3616 386.601 33.6806C387.617 33.2334 388.124 32.0646 388.632 31.0685C389.825 28.7523 391.872 26.9917 394.339 26.1593C395.569 25.7679 396.879 25.7017 398.142 25.9671C399.406 26.2325 400.579 26.8204 401.548 27.6737C402.046 28.2401 402.597 28.7574 403.193 29.2187C403.913 29.5872 404.719 29.7535 405.525 29.6998C406.332 29.6461 407.108 29.3744 407.773 28.9137C408.88 28.2429 410.189 27.257 411.306 27.8973C411.563 28.075 411.781 28.304 411.945 28.5699C412.109 28.8358 412.217 29.1328 412.261 29.4423C412.85 32.278 410.809 34.9105 409.905 37.6649C408.758 41.1817 409.499 45.0135 410.25 48.6319C411.317 53.7139 412.474 59.0906 415.774 63.146C419.074 67.2015 424.141 69.4782 427.543 73.432C430.945 77.3858 432.417 82.6507 433.432 87.8242C433.879 89.3541 433.879 90.9799 433.432 92.5098C432.942 93.5401 432.251 94.4625 431.402 95.2236C428.051 98.6387 424.558 102.166 420.08 103.853C415.236 105.682 409.925 105.144 404.716 105.042C401.134 105.134 397.55 104.961 393.993 104.524C390.46 103.914 386.936 102.491 384.611 99.7262C382.612 97.1673 381.493 94.0296 381.423 90.7819C381.354 87.5578 381.595 84.3345 382.143 81.1566C383.068 74.2756 383.717 67.3438 384.103 60.4119C384.499 53.968 384.591 47.646 381.341 41.822Z" fill="#E6635E"/>
        <path opacity="0.26" d="M385.474 37.4921C386.489 37.0348 387.444 38.0817 388.297 38.783C389.042 39.4019 389.943 39.8043 390.901 39.9461C391.859 40.088 392.837 39.9641 393.729 39.5877C394.622 39.2113 395.394 38.597 395.961 37.8117C396.529 37.0264 396.87 36.1002 396.948 35.1341C397.522 35.3066 398.053 35.5962 398.509 35.9845C398.966 36.3729 399.336 36.8516 399.599 37.3905C399.822 37.8682 400.025 38.4069 400.533 38.5797C400.818 38.6388 401.115 38.5994 401.376 38.4679C402.816 37.7199 404.037 36.6095 404.919 35.2459L406.767 32.8472C408.23 34.3311 407.732 36.7705 407.326 38.8236C406.273 44.1916 406.623 49.7406 408.341 54.9335C408.737 56.2528 409.344 57.499 410.139 58.6231C411.282 59.9397 412.573 61.1197 413.987 62.1398C416.438 64.1845 418.499 66.657 420.069 69.4376L409.418 64.3556C408.199 63.7762 406.605 63.2375 405.63 64.1726C405.165 64.7527 404.892 65.4631 404.848 66.2054C404.345 68.9881 403.366 71.6632 401.954 74.113L400.675 66.1749C400.644 65.4025 400.312 64.6728 399.751 64.1421C398.512 63.2375 396.867 64.6503 396.207 66.0529C394.684 69.2953 394.664 73.0763 393.303 76.3897C392.409 78.5546 390.967 80.4553 390.013 82.5999C389.093 84.7361 388.677 87.0556 388.797 89.3786C388.917 91.7017 389.569 93.9659 390.703 95.9961C391.262 97.0125 391.963 98.0289 391.77 99.1469C391.594 99.7973 391.188 100.362 390.628 100.735C390.067 101.109 389.391 101.267 388.723 101.18C387.404 100.951 386.201 100.281 385.312 99.279C381.93 95.9046 380.448 90.9649 380.478 86.1878C380.638 82.4057 381.231 78.6544 382.245 75.0074C383.009 71.2977 384.097 67.662 385.494 64.1421C387.342 59.8732 390.175 55.7772 390.155 51.1221C390.155 48.0729 388.703 45.7351 387.281 43.2043C386.591 41.9948 383.281 38.4984 385.474 37.4921Z" fill="url(#paint12_linear_84_295)"/>
        <path d="M405.468 41.9236C403.944 42.3486 402.456 42.8959 401.02 43.56C400.311 43.8998 399.676 44.3776 399.153 44.9658C398.63 45.5539 398.229 46.2404 397.974 46.9853C397.862 47.2731 397.831 47.5857 397.883 47.89C397.935 48.1942 398.068 48.4787 398.268 48.7132C398.527 48.8856 398.822 48.9964 399.13 49.0369C399.438 49.0774 399.751 49.0467 400.045 48.947C403.588 48.3274 407.07 47.4024 410.453 46.1824C411.361 45.9093 412.211 45.4718 412.962 44.8915C413.332 44.597 413.625 44.216 413.815 43.7819C414.004 43.3477 414.084 42.8737 414.048 42.4014C413.317 37.5023 407.793 41.1309 405.468 41.9236Z" fill="url(#paint13_linear_84_295)"/>
        <path d="M406.28 47.3106C404.759 47.7358 403.275 48.283 401.843 48.947C401.132 49.2848 400.496 49.762 399.972 50.3504C399.449 50.9388 399.049 51.6263 398.796 52.3722C398.686 52.6609 398.656 52.9741 398.71 53.2783C398.764 53.5826 398.899 53.8667 399.101 54.1001C399.36 54.2726 399.654 54.3833 399.962 54.4238C400.27 54.4644 400.584 54.4336 400.878 54.3339C404.417 53.7131 407.896 52.7881 411.276 51.5693C412.185 51.2984 413.035 50.8607 413.784 50.2785C414.157 49.9864 414.452 49.6058 414.642 49.171C414.832 48.7362 414.91 48.261 414.87 47.7883C414.139 42.8892 408.605 46.5178 406.28 47.3106Z" fill="url(#paint14_linear_84_295)"/>
        <path d="M407.306 52.0876C405.782 52.5126 404.294 53.0599 402.858 53.724C402.148 54.0638 401.514 54.5416 400.991 55.1297C400.467 55.7179 400.067 56.4044 399.812 57.1493C399.701 57.4388 399.669 57.7529 399.721 58.0587C399.773 58.3646 399.906 58.6508 400.106 58.8873C400.368 59.0524 400.662 59.1588 400.969 59.1992C401.276 59.2395 401.588 59.2129 401.883 59.1211C405.421 58.492 408.9 57.5638 412.281 56.3464C413.189 56.077 414.039 55.6429 414.789 55.0657C415.163 54.7713 415.459 54.3891 415.65 53.953C415.842 53.5168 415.923 53.0402 415.886 52.5653C415.155 47.6765 409.631 51.2948 407.306 52.0876Z" fill="url(#paint15_linear_84_295)"/>
        <path d="M408.392 56.8546C406.882 57.2829 405.409 57.8301 403.985 58.491C403.276 58.8307 402.641 59.3085 402.118 59.8967C401.595 60.4848 401.194 61.1713 400.939 61.9162C400.828 62.2057 400.796 62.5198 400.848 62.8257C400.9 63.1315 401.033 63.4177 401.233 63.6543C401.495 63.8193 401.79 63.9257 402.096 63.9661C402.403 64.0064 402.715 63.9798 403.01 63.888C406.548 63.259 410.027 62.3307 413.408 61.1133C414.316 60.8439 415.166 60.4098 415.916 59.8326C416.29 59.5382 416.586 59.156 416.778 58.7199C416.969 58.2838 417.05 57.8072 417.013 57.3323C416.241 52.4332 410.728 56.0618 408.392 56.8546Z" fill="url(#paint16_linear_84_295)"/>
        <path d="M378.732 49.7499C383.392 42.7368 392.024 39.3827 400.37 38.3358C401.782 38.1528 403.64 38.3358 404.046 39.6672C404.175 40.2173 404.099 40.7953 403.833 41.2935C402.411 44.2919 397.974 44.8712 396.562 47.8696C396.184 48.843 395.978 49.8747 395.953 50.9188C395.202 59.8733 392.552 69.214 385.89 75.231C384.834 76.3136 383.525 77.1168 382.083 77.5688C380.855 77.8114 379.595 77.8457 378.356 77.6704C376.579 77.5078 374.782 77.3451 373.015 77.0707C371.248 76.7963 370.659 76.6337 370.984 74.8245C371.522 71.9989 372.771 69.2038 373.37 66.3477C374.538 60.6457 375.452 54.6795 378.732 49.7499Z" fill="url(#paint17_linear_84_295)"/>
        <path d="M365.247 80.1911C365.197 80.4661 365.232 80.75 365.348 81.0042C365.534 81.2478 365.794 81.4229 366.09 81.5022L380.712 87.1534C381.3 87.4429 381.959 87.5592 382.611 87.4888C383.199 87.3088 383.72 86.9544 384.103 86.4724C386.364 84.0186 387.725 80.8682 387.962 77.5383C387.992 77.38 387.989 77.2173 387.954 77.06C387.919 76.9028 387.853 76.7543 387.759 76.6235C387.527 76.4325 387.236 76.3282 386.936 76.3287C381.524 75.6681 376.518 72.5986 371.289 71.1451C365.034 69.4376 365.643 75.1497 365.247 80.1911Z" fill="white"/>
        <path d="M307.713 317.52H190.747C190.747 314.827 194.169 301.441 196.789 299.52C199.408 297.599 205.186 298.788 208.435 298.788C218.671 298.788 228.886 298.639 239.081 298.341C249.326 297.975 259.531 297.456 269.736 296.715C272.61 296.532 298.361 292.842 298.991 294.133C301.783 299.743 307.673 314.969 307.713 317.52Z" fill="#606161"/>
        <path d="M124.115 207.261L165.605 204.974C167.331 204.883 169.281 204.68 170.357 203.338C171.434 201.996 171.241 200.106 171.017 198.408C169.765 188.563 169.619 178.608 170.581 168.73C170.926 165.142 171.484 161.422 173.566 158.484C175.648 155.547 179.658 153.717 182.948 155.252C183.494 155.587 184.091 155.831 184.715 155.974C186.746 156.197 187.66 153.057 186.36 151.481C185.06 149.906 182.786 149.621 180.755 149.448C169.799 148.625 158.781 149.072 147.845 148.219C141.56 147.731 135.142 145.708 129.283 148.961C111.382 158.931 120.409 192.005 124.115 207.261Z" fill="#E6635E"/>
        <path opacity="0.26" d="M148.688 148.524L142.809 147.822C142.809 147.822 150.069 169.634 158.365 182.441C166.661 195.247 177.729 216.358 178.074 221.552C178.42 226.746 191.559 279.354 186.726 294.58C181.892 309.806 176.348 317.601 176.348 317.601H237.893L234.41 209.436L152.222 148.452" fill="url(#paint18_linear_84_295)"/>
        <path d="M126.897 150.424C126.897 150.424 118.429 155.791 128.928 194.556C128.928 194.556 132.99 194.424 132.898 199.1L160.132 197.067C160.132 197.067 158.578 193.306 163.635 192.269C163.635 192.269 156.243 164.491 157.796 159.297C158.675 155.997 158.314 152.489 156.781 149.438C156.781 149.438 143.469 147.873 141.225 147.7C138.981 147.527 133.294 145.23 126.897 150.424Z" fill="url(#paint19_linear_84_295)"/>
        <path d="M167.159 65.0772C172.581 62.4244 178.927 63.0444 184.918 62.3228C191.28 61.6034 197.393 59.4375 202.79 55.9906C202.355 65.3162 203.59 74.6444 206.435 83.535C200.881 83.3114 194.951 83.1793 190.188 86.076C185.974 88.6475 183.314 93.2721 179.019 95.7725C174.236 98.598 168.296 98.2728 162.772 97.8662C164.539 94.2275 162.142 90.0196 159.726 86.7875C156.74 82.8134 154.425 79.4694 157.004 74.9363C159.403 70.7655 162.921 67.3503 167.159 65.0772Z" fill="#E6635E"/>
        <path d="M168.631 65.7582C173.424 63.4103 179.049 63.9185 184.35 63.329C189.982 62.6922 195.394 60.773 200.17 57.7185C199.78 65.9775 200.874 74.2396 203.399 82.112C198.474 81.9088 193.245 81.797 189.031 84.3583C185.304 86.635 182.938 90.7209 179.181 92.9367C174.947 95.437 169.687 95.1524 164.793 94.7865C166.356 91.5747 164.224 87.8445 162.071 84.9885C159.431 81.4717 157.38 78.514 159.665 74.4992C161.78 70.8049 164.886 67.777 168.631 65.7582Z" fill="url(#paint20_linear_84_295)"/>
        <path d="M429.858 68.6041C429.076 63.6542 430.772 57.9522 435.148 55.5129C437.748 54.0594 440.855 53.9476 443.83 53.8765L463.986 53.3581C463.247 59.751 464.964 66.1862 468.789 71.3585C472.303 76.0543 477.4 79.4897 480.649 84.3278C483.227 88.4412 484.388 93.2863 483.956 98.1227C483.523 102.959 481.52 107.52 478.253 111.11C468.756 109.794 459.093 110.375 449.821 112.817C451.852 107.298 448.247 101.332 444.257 96.9921C437.423 89.5318 431.452 78.8596 429.858 68.6041Z" fill="#E6635E"/>
        <path opacity="0.26" d="M433.026 70.7792C432.011 66.1546 433.189 60.6965 436.844 58.1555C439.017 56.6513 441.708 56.3768 444.287 56.1227L461.752 54.5371C461.451 60.5462 463.29 66.4674 466.941 71.2467C470.272 75.4851 474.902 78.3615 478.009 82.8235C483.086 90.1416 482.904 101.241 477.512 108.233C469.193 107.505 460.815 108.579 452.949 111.384C454.421 106.069 450.918 100.651 447.181 96.7787C440.825 90.0806 435.016 80.3435 433.026 70.7792Z" fill="url(#paint21_linear_84_295)"/>
        <path d="M33.2246 199.648C32.8278 199.902 32.5274 200.281 32.3716 200.726C32.3527 201.028 32.3981 201.332 32.5049 201.616C32.6116 201.899 32.7773 202.157 32.991 202.372C37.1762 207.874 41.6539 213.147 46.4047 218.167C46.7831 218.641 47.2912 218.994 47.8669 219.184C48.5392 219.253 49.2159 219.103 49.7962 218.757L58.1938 214.864C61.169 213.482 64.2254 212.048 66.5202 209.69C71.049 205.015 71.5973 197.89 71.902 191.395C65.5962 185.958 59.5849 175.052 51.8271 180.093C45.1558 184.433 39.7436 194.322 33.2246 199.648Z" fill="#E6635E"/>
        <path d="M419.582 270.888C425.422 275.67 431.647 279.961 438.195 283.715C441.18 270.878 453.528 263.255 464.037 256.983C444.602 234.43 424.019 274.526 419.582 270.888Z" fill="#E6635E"/>
        <g opacity="0.24">
            <path d="M410.22 226.126V217.639C399.05 216.714 392.521 210.087 391.587 201.143H399.781C400.234 203.701 401.49 206.047 403.368 207.841C405.245 209.634 407.646 210.781 410.22 211.113V188.549C397.832 184.819 392.958 180.154 392.958 171.484C392.958 162.072 400.218 155.821 410.22 155.171V148.828H415.53V155.262C427.919 156.472 431.919 164.491 432.478 170.274H424.466C423.451 166.453 421.207 162.723 415.53 161.696V182.024C429.746 186.09 433.879 192.097 433.879 200.39C433.879 210.737 426.984 216.805 415.53 217.669V226.156L410.22 226.126ZM410.22 180.438V161.513C403.508 162.072 401.081 166.077 401.081 170.559C401.081 175.041 403.234 178.019 410.22 180.438ZM415.53 190.135V211.205C421.958 210.554 425.4 207.292 425.4 201.234C425.4 196.294 423.278 192.839 415.53 190.135Z" fill="#E6635E"/>
        </g>
        <path d="M412.789 225.485V216.998C401.619 216.063 395.09 209.446 394.156 200.492H402.35C402.801 203.052 404.056 205.401 405.934 207.196C407.812 208.992 410.214 210.14 412.789 210.473V187.909C400.401 184.179 395.527 179.514 395.527 170.844C395.527 161.432 402.787 155.181 412.789 154.53V148.188H418.1V154.622C430.488 155.831 434.499 163.851 435.057 169.634H427.045C426.03 165.812 423.786 162.082 418.1 161.056V181.384C432.315 185.449 436.448 191.446 436.448 199.75C436.448 210.097 429.553 216.155 418.1 217.029V225.516L412.789 225.485ZM412.789 179.798V160.913C406.077 161.472 403.65 165.477 403.65 169.949C403.65 174.421 405.803 177.369 412.789 179.798ZM418.1 189.495V210.565C424.527 209.914 427.969 206.651 427.969 200.583C427.969 195.644 425.827 192.198 418.1 189.495Z" fill="white"/>
        <g opacity="0.24">
            <path d="M409.885 98.3541V95.3049C405.935 94.9797 403.63 92.642 403.305 89.481H406.199C406.354 90.386 406.796 91.2169 407.46 91.8504C408.124 92.4839 408.974 92.8863 409.885 92.9977V85.0291C405.508 83.718 403.792 82.0714 403.792 79.0019C403.792 75.6783 406.361 73.4727 409.885 73.2389V71.0028H411.753V73.2694C416.14 73.7064 417.551 76.532 417.744 78.575H414.921C414.776 77.8001 414.392 77.0899 413.824 76.5434C413.256 75.9968 412.532 75.6411 411.753 75.5258V82.7016C416.83 84.155 418.242 86.259 418.242 89.1964C418.242 92.8452 415.805 94.9898 411.753 95.2948V98.3439L409.885 98.3541ZM409.885 82.2137V75.536C407.509 75.7291 406.656 77.1419 406.656 78.7275C406.656 80.313 407.417 81.3599 409.885 82.2137ZM411.753 85.639V93.0892C414.028 92.8554 415.246 91.6967 415.246 89.5623C415.246 87.8141 414.485 86.5944 411.753 85.639Z" fill="#E6635E"/>
        </g>
        <path d="M410.788 98.1305V95.0813C406.839 94.7459 404.544 92.4082 404.209 89.2472H407.103C407.252 90.1595 407.691 90.9992 408.355 91.6419C409.019 92.2845 409.873 92.6958 410.788 92.8148V84.8462C406.412 83.5249 404.696 81.8783 404.696 78.8189C404.696 75.4953 407.255 73.2796 410.788 73.056V70.8199H412.667V73.0966C417.043 73.5235 418.455 76.3593 418.658 78.4022H415.825C415.684 77.6269 415.304 76.9154 414.737 76.3682C414.17 75.8211 413.446 75.466 412.667 75.353V82.5491C417.744 84.0026 419.145 86.1065 419.145 89.0338C419.145 92.6928 416.708 94.8374 412.667 95.1321V98.1813L410.788 98.1305ZM410.788 81.9901V75.3022C408.423 75.5055 407.57 76.9183 407.57 78.4937C407.57 80.0691 408.321 81.1363 410.788 81.9901ZM412.667 85.4154V92.8148C414.942 92.5911 416.15 91.4325 416.15 89.298C416.17 87.5905 415.398 86.3708 412.667 85.4154Z" fill="white"/>
        <g opacity="0.24">
            <path d="M85.8843 107.603V104.554C81.9343 104.229 79.6293 101.881 79.3044 98.72H82.1983C82.3527 99.6262 82.7946 100.459 83.4585 101.094C84.1223 101.729 84.9729 102.133 85.8843 102.247V94.2783C81.5078 92.957 79.7918 91.3105 79.7918 88.2511C79.7918 84.9275 82.3608 82.7219 85.8843 82.4881V80.252H87.7527V82.5186C92.1291 82.9455 93.5507 85.7813 93.7437 87.8242H90.9208C90.7765 87.0487 90.3935 86.3377 89.8254 85.7909C89.2573 85.2441 88.5325 84.8889 87.7527 84.775V91.9508C92.8298 93.4042 94.2412 95.5082 94.2412 98.4354C94.2412 102.094 91.8042 104.239 87.7527 104.534V107.583L85.8843 107.603ZM85.8843 91.4629V84.775C83.5082 84.9783 82.6553 86.3911 82.6553 87.9767C82.6553 89.5623 83.4168 90.6091 85.8843 91.4629ZM87.7527 94.8475V102.288C90.0272 102.105 91.2356 100.946 91.2356 98.8115C91.2356 97.0633 90.4842 95.8639 87.7527 94.8475Z" fill="#E6635E"/>
        </g>
        <path d="M86.788 107.37V104.381C82.838 104.046 80.5432 101.708 80.2081 98.5472H83.1122C83.2696 99.4521 83.7124 100.283 84.3758 100.917C85.0391 101.552 85.888 101.957 86.7982 102.074V94.1056C82.4217 92.7842 80.7057 91.1377 80.7057 88.0783C80.7057 84.7445 83.2645 82.5389 86.7982 82.3153V80.0691H88.6767V82.3458C93.0532 82.7727 94.4646 85.6085 94.6677 87.6413H91.8245C91.6794 86.8678 91.2975 86.1587 90.7316 85.6123C90.1657 85.0659 89.444 84.7094 88.6666 84.5921V91.7983C93.7437 93.2416 95.1449 95.3557 95.1449 98.283C95.1449 101.942 92.7079 104.076 88.6666 104.381V107.37H86.788ZM86.788 91.2393V84.5514C84.4221 84.7445 83.5691 86.1675 83.5691 87.7429C83.5691 89.3183 84.3206 90.3754 86.788 91.2393ZM88.6666 94.6646V102.105C90.9411 101.871 92.1495 100.722 92.1495 98.5777C92.1495 96.8803 91.398 95.62 88.6666 94.6646Z" fill="white"/>
        <g opacity="0.24">
            <path d="M24.36 250.357V246.291C19.0391 245.854 15.9421 242.693 15.4953 238.434H19.3945C19.5975 239.663 20.1897 240.793 21.0839 241.659C21.978 242.525 23.1266 243.08 24.36 243.242V232.468C18.4604 230.689 16.1554 228.473 16.1554 224.337C16.1554 219.854 19.6179 216.876 24.36 216.571V213.522H26.8884V216.571C32.7879 217.151 34.6969 220.962 34.9609 223.686H31.143C30.9431 222.65 30.4262 221.702 29.6638 220.974C28.9014 220.245 27.9314 219.772 26.8884 219.621V229.297C33.6714 231.248 35.621 234.094 35.621 238.038C35.621 242.967 32.3412 245.854 26.8884 246.25V250.316L24.36 250.357ZM24.36 228.606V219.6C21.1715 219.865 20.014 221.765 20.014 223.9C20.014 226.034 21.0395 227.447 24.36 228.606ZM26.8884 233.22V243.242C29.9346 242.927 31.5897 241.382 31.5897 238.495C31.5897 236.127 30.5743 234.511 26.8884 233.22Z" fill="#E6635E"/>
        </g>
        <path d="M25.5886 250.041V245.976C20.2678 245.529 17.1606 242.378 16.7138 238.119H20.6232C20.8319 239.339 21.4274 240.459 22.3217 241.314C23.216 242.169 24.3615 242.713 25.5886 242.866V232.163C19.689 230.384 17.384 228.169 17.384 224.032C17.384 219.549 20.8364 216.571 25.5886 216.256V213.207H28.117V216.256C34.0065 216.836 35.9154 220.647 36.1795 223.371H32.3412C32.1413 222.335 31.6244 221.387 30.862 220.659C30.0996 219.93 29.1296 219.457 28.0866 219.306V229.012C34.8696 230.964 36.8192 233.81 36.8192 237.753C36.8192 242.683 33.5394 245.569 28.0866 245.966V250.031L25.5886 250.041ZM25.5886 228.301V219.285C22.39 219.56 21.2426 221.46 21.2426 223.595C21.2426 225.729 22.258 227.142 25.5886 228.301ZM28.117 232.915V242.947C31.1633 242.632 32.8083 241.077 32.8083 238.2C32.8083 235.842 31.7928 234.206 28.117 232.915Z" fill="white"/>
        <g opacity="0.24">
            <path d="M153.846 161.533H150.963C150.658 165.335 148.424 167.551 145.388 167.876V165.091C146.26 164.946 147.061 164.52 147.67 163.878C148.278 163.236 148.661 162.413 148.759 161.533H141.113C139.854 165.752 138.28 167.398 135.335 167.408C132.137 167.408 130.014 164.949 129.781 161.564H127.628V159.795H129.822C130.218 155.588 132.939 154.215 134.899 154.022V156.746C134.157 156.887 133.478 157.257 132.958 157.804C132.437 158.351 132.1 159.047 131.995 159.795H138.889C140.27 154.947 142.291 153.545 145.104 153.545C148.617 153.545 150.678 155.872 150.973 159.765H153.857L153.846 161.533ZM138.351 161.533H131.923C132.116 163.81 133.487 164.633 134.97 164.633C136.452 164.633 137.529 163.963 138.351 161.574V161.533ZM141.631 159.714H148.739C148.515 157.529 147.409 156.36 145.347 156.36C143.712 156.401 142.545 157.122 141.631 159.755V159.714Z" fill="#E6635E"/>
        </g>
        <path d="M153.623 160.659H150.749C150.445 164.461 148.201 166.676 145.165 167.002V164.217C146.034 164.063 146.831 163.635 147.44 162.995C148.048 162.354 148.436 161.536 148.546 160.659H140.89C139.631 164.877 138.057 166.524 135.112 166.534C131.913 166.534 129.791 164.074 129.568 160.69H127.415V158.881H129.598C130.004 154.673 132.715 153.301 134.675 153.107V155.831C133.934 155.973 133.255 156.343 132.734 156.889C132.213 157.436 131.877 158.133 131.771 158.881H138.666C140.047 154.032 142.068 152.63 144.89 152.63C148.394 152.63 150.455 154.957 150.749 158.85H153.633L153.623 160.659ZM138.128 160.659H131.7C131.903 162.946 133.264 163.709 134.746 163.709C136.229 163.709 137.305 163.068 138.128 160.7V160.659ZM141.408 158.84H148.515C148.292 156.655 147.185 155.486 145.124 155.486C143.489 155.527 142.321 156.248 141.408 158.881V158.84Z" fill="white"/>
        <g opacity="0.24">
            <path d="M181.07 84.5819L180.522 82.7117C177.983 83.2301 176.115 82.1832 175.333 80.2622L177.14 79.7337C177.405 80.271 177.835 80.7096 178.366 80.9856C178.898 81.2617 179.503 81.3607 180.095 81.2684L178.633 76.2779C175.658 76.2779 174.287 75.536 173.718 73.6251C173.109 71.5415 174.317 69.6815 176.48 68.8989L176.064 67.4962L177.242 67.1507L177.658 68.5736C180.471 68.0349 181.882 69.59 182.38 70.7894L180.603 71.3077C180.369 70.8535 180.001 70.4832 179.548 70.2482C179.095 70.0133 178.58 69.9253 178.074 69.9966L179.384 74.5196C182.806 74.5196 184.096 75.536 184.634 77.3858C185.304 79.6829 184.177 81.4514 181.689 82.3966L182.238 84.2668L181.07 84.5819ZM178.115 74.5196L176.886 70.3422C176.619 70.4108 176.368 70.5334 176.15 70.7023C175.931 70.8712 175.749 71.0829 175.615 71.3246C175.481 71.5662 175.398 71.8326 175.37 72.1076C175.343 72.3826 175.371 72.6603 175.455 72.9238C175.749 73.8996 176.409 74.3976 178.115 74.5196ZM179.912 76.3186L181.273 80.9839C181.57 80.9131 181.848 80.7805 182.091 80.5947C182.333 80.4089 182.534 80.1742 182.679 79.9057C182.825 79.6372 182.912 79.341 182.936 79.0364C182.96 78.7319 182.919 78.4257 182.816 78.1379C182.491 76.9996 181.801 76.3796 179.912 76.2779V76.3186Z" fill="#E6635E"/>
        </g>
        <path d="M181.608 84.277L181.06 82.3966C178.521 82.915 176.653 81.8783 175.871 79.9573L177.678 79.4288C177.943 79.9663 178.372 80.4046 178.904 80.6791C179.436 80.9536 180.042 81.0498 180.633 80.9534L179.171 75.9628C176.196 75.9628 174.815 75.231 174.256 73.31C173.647 71.2772 174.855 69.3766 177.008 68.5838L176.602 67.1811L177.78 66.8356L178.196 68.2585C181.009 67.73 182.42 69.2749 182.918 70.4844L181.141 71.0028C180.909 70.5467 180.541 70.1742 180.088 69.9374C179.635 69.7005 179.119 69.6111 178.613 69.6815L179.922 74.1841C183.344 74.1841 184.634 75.2005 185.172 77.0504C185.842 79.3373 184.705 81.116 182.227 82.0511L182.776 83.9314L181.608 84.277ZM178.643 74.174L177.424 69.9864C177.156 70.0549 176.904 70.1778 176.685 70.3474C176.465 70.517 176.283 70.7297 176.149 70.9725C176.015 71.2153 175.932 71.4831 175.905 71.7592C175.878 72.0354 175.908 72.3141 175.993 72.5782C176.277 73.5946 176.937 74.0927 178.633 74.174H178.643ZM180.45 75.973L181.801 80.6179C182.098 80.5471 182.377 80.4146 182.619 80.2288C182.861 80.043 183.062 79.8082 183.207 79.5398C183.353 79.2713 183.44 78.9751 183.464 78.6705C183.488 78.3659 183.447 78.0598 183.344 77.772C183.019 76.6946 182.329 76.0645 180.44 75.973H180.45Z" fill="white"/>
        <g opacity="0.24">
            <path d="M448.065 265.531L446.927 264.708C446.488 265.343 445.824 265.787 445.071 265.951C444.317 266.115 443.529 265.987 442.866 265.592L443.668 264.484C444.055 264.676 444.493 264.739 444.919 264.664C445.344 264.589 445.735 264.38 446.034 264.068L442.987 261.852C441.271 263.153 440.175 263.346 439.017 262.503C438.725 262.28 438.481 262.002 438.297 261.685C438.113 261.367 437.994 261.016 437.947 260.652C437.9 260.288 437.925 259.918 438.022 259.564C438.118 259.21 438.284 258.879 438.509 258.589L437.667 257.959L438.185 257.248L439.048 257.878C439.452 257.311 440.052 256.916 440.731 256.767C441.41 256.619 442.12 256.728 442.723 257.075L441.931 258.152C441.598 257.993 441.223 257.941 440.859 258.005C440.495 258.069 440.16 258.245 439.901 258.508L442.622 260.541C444.572 259.026 445.77 259.067 446.887 259.88C448.268 260.897 448.41 262.411 447.394 264.037L448.532 264.861L448.065 265.531ZM441.972 261.059L439.434 259.209C439.306 259.364 439.213 259.544 439.16 259.737C439.106 259.931 439.094 260.133 439.124 260.331C439.154 260.53 439.224 260.719 439.332 260.889C439.44 261.058 439.581 261.202 439.748 261.313C440.337 261.761 440.936 261.761 441.942 261.059H441.972ZM443.79 261.293L446.613 263.326C446.752 263.155 446.854 262.957 446.911 262.744C446.969 262.531 446.981 262.308 446.946 262.09C446.912 261.872 446.831 261.664 446.711 261.48C446.59 261.295 446.432 261.138 446.247 261.019C445.556 260.571 444.876 260.521 443.759 261.293H443.79Z" fill="#E6635E"/>
        </g>
        <path d="M448.227 265.125L447.09 264.302C446.65 264.936 445.987 265.381 445.233 265.545C444.479 265.709 443.691 265.581 443.028 265.186L443.83 264.078C444.216 264.267 444.653 264.328 445.076 264.254C445.499 264.179 445.888 263.971 446.186 263.661L443.14 261.445C441.434 262.746 440.327 262.94 439.169 262.086C438.877 261.864 438.632 261.585 438.449 261.267C438.265 260.949 438.147 260.598 438.101 260.234C438.054 259.869 438.081 259.499 438.179 259.146C438.277 258.792 438.445 258.461 438.672 258.173L437.819 257.553L438.337 256.841L439.2 257.471C439.604 256.905 440.204 256.509 440.883 256.361C441.563 256.212 442.273 256.322 442.876 256.668L442.094 257.746C441.761 257.585 441.386 257.533 441.021 257.596C440.657 257.66 440.322 257.837 440.063 258.101L442.784 260.134C444.734 258.62 445.932 258.661 447.049 259.474C448.43 260.49 448.572 262.004 447.557 263.621L448.694 264.454L448.227 265.125ZM442.135 260.653L439.596 258.803C439.469 258.958 439.377 259.139 439.324 259.333C439.272 259.526 439.26 259.729 439.291 259.927C439.322 260.125 439.393 260.315 439.502 260.484C439.61 260.653 439.753 260.797 439.921 260.907C440.54 261.354 441.099 261.354 442.104 260.653H442.135ZM443.952 260.886L446.785 262.919C446.924 262.749 447.025 262.55 447.082 262.338C447.138 262.125 447.149 261.903 447.114 261.686C447.078 261.469 446.997 261.262 446.876 261.078C446.754 260.895 446.595 260.74 446.409 260.622C445.719 260.165 445.049 260.114 443.922 260.886H443.952Z" fill="white"/>
        <path d="M461.275 219.732C460.666 226.014 454.502 227.549 454.939 233.84C459.965 231.95 465.408 232.204 470.536 233.494C475.664 234.785 480.274 237.56 485.28 239.227C485.506 237.269 486.048 235.36 486.884 233.576C487.818 231.756 488.986 230.059 489.88 228.219C488.519 228.473 487.27 227.488 486.153 226.674C481.665 223.381 476.09 222.141 470.637 221.735C469.368 221.643 461.052 222.07 461.275 219.732Z" fill="#E6635E"/>
        <g opacity="0.24">
            <path d="M470.191 231.726L470.587 230.801C470.082 230.598 469.671 230.213 469.436 229.722C469.201 229.231 469.159 228.669 469.317 228.148L470.211 228.524C470.139 228.823 470.165 229.136 470.286 229.418C470.407 229.7 470.616 229.936 470.881 230.09L471.897 227.64C470.719 226.624 470.404 225.932 470.8 224.987C470.903 224.746 471.054 224.527 471.243 224.345C471.432 224.162 471.656 224.019 471.901 223.925C472.146 223.83 472.407 223.785 472.67 223.793C472.933 223.801 473.191 223.861 473.43 223.971L473.724 223.28L474.303 223.524L473.998 224.225C474.45 224.419 474.816 224.769 475.028 225.212C475.241 225.655 475.287 226.16 475.156 226.634L474.283 226.268C474.336 226.012 474.309 225.746 474.205 225.505C474.102 225.265 473.927 225.063 473.704 224.926L472.77 227.132C474.13 228.24 474.303 229.073 473.917 229.978C473.808 230.233 473.648 230.464 473.447 230.655C473.245 230.846 473.007 230.994 472.746 231.089C472.485 231.184 472.208 231.225 471.931 231.208C471.654 231.192 471.383 231.119 471.135 230.994L470.739 231.919L470.191 231.726ZM472.293 226.756L473.166 224.723C473.038 224.658 472.898 224.621 472.754 224.615C472.611 224.608 472.468 224.632 472.335 224.685C472.201 224.738 472.081 224.819 471.981 224.921C471.881 225.024 471.804 225.147 471.754 225.282C471.551 225.76 471.653 226.176 472.293 226.756ZM472.425 228.057L471.46 230.354C471.601 230.421 471.754 230.458 471.91 230.463C472.067 230.467 472.222 230.439 472.366 230.38C472.511 230.32 472.641 230.231 472.749 230.118C472.857 230.005 472.94 229.871 472.993 229.724C473.217 229.185 473.145 228.707 472.425 228.057Z" fill="#E6635E"/>
        </g>
        <path d="M470.505 231.777L470.891 230.852C470.389 230.645 469.982 230.26 469.747 229.77C469.513 229.28 469.468 228.72 469.622 228.199L470.516 228.575C470.448 228.875 470.477 229.188 470.6 229.469C470.722 229.751 470.931 229.986 471.196 230.14L472.211 227.691C471.033 226.674 470.729 225.983 471.125 225.038C471.227 224.797 471.377 224.578 471.565 224.396C471.753 224.214 471.976 224.071 472.22 223.976C472.465 223.881 472.725 223.837 472.987 223.844C473.249 223.852 473.506 223.912 473.745 224.022L474.039 223.331L474.618 223.574L474.323 224.276C474.773 224.471 475.136 224.823 475.347 225.265C475.558 225.708 475.602 226.212 475.471 226.685L474.608 226.319C474.662 226.063 474.636 225.796 474.532 225.555C474.429 225.315 474.253 225.113 474.029 224.977L473.095 227.183C474.455 228.291 474.618 229.124 474.242 230.029C474.133 230.285 473.973 230.517 473.77 230.709C473.568 230.901 473.329 231.049 473.067 231.145C472.805 231.24 472.526 231.28 472.248 231.263C471.97 231.246 471.698 231.172 471.45 231.045L471.064 231.97L470.505 231.777ZM472.607 226.807L473.481 224.774C473.352 224.709 473.211 224.673 473.067 224.667C472.924 224.661 472.78 224.686 472.647 224.74C472.513 224.794 472.393 224.875 472.293 224.979C472.194 225.083 472.117 225.207 472.069 225.343C471.856 225.811 471.957 226.217 472.607 226.807ZM472.739 228.108L471.724 230.394C471.865 230.464 472.018 230.502 472.175 230.507C472.331 230.513 472.487 230.485 472.632 230.425C472.777 230.365 472.908 230.276 473.016 230.162C473.123 230.048 473.206 229.912 473.257 229.764C473.531 229.226 473.45 228.758 472.739 228.108Z" fill="white"/>
        <g opacity="0.24">
            <path d="M447.283 84.6835L449.506 83.9924C448.836 80.9432 450.045 78.7274 452.319 77.7517L452.979 79.9065C452.345 80.2337 451.831 80.7553 451.513 81.3952C451.195 82.0351 451.09 82.7599 451.212 83.4639L457.132 81.6343C457.132 78.077 457.934 76.4202 460.179 75.7189C462.646 74.9566 464.88 76.3491 465.855 78.9206L467.52 78.4022L467.957 79.7947L466.271 80.3232C466.951 83.6773 465.174 85.4052 463.712 85.9947L463.052 83.8908C463.592 83.6054 464.03 83.1579 464.303 82.611C464.576 82.0641 464.671 81.4454 464.575 80.8416L459.244 82.4983C459.336 86.5639 458.097 88.1393 455.924 88.8203C453.213 89.6639 451.06 88.3426 449.903 85.395L447.679 86.0862L447.283 84.6835ZM459.265 80.9635L464.23 79.4288C464.149 79.1056 464.001 78.8031 463.796 78.5405C463.591 78.278 463.334 78.0613 463.04 77.9043C462.747 77.7473 462.423 77.6535 462.092 77.629C461.76 77.6045 461.426 77.6497 461.113 77.7619C459.915 78.1379 459.326 78.9307 459.265 80.9635ZM457.153 83.1488L451.619 84.8665C452.319 86.5029 453.456 87.1432 455.041 86.6452C456.34 86.2488 457.071 85.4052 457.153 83.1488Z" fill="#E6635E"/>
        </g>
        <path d="M447.648 85.3036L449.872 84.6124C449.202 81.5632 450.41 79.3475 452.685 78.3819L453.355 80.5366C452.718 80.8583 452.202 81.3774 451.883 82.0167C451.565 82.6559 451.461 83.381 451.588 84.0839L457.498 82.2442C457.498 78.6868 458.3 77.0402 460.544 76.3288C463.012 75.5665 465.246 76.9691 466.23 79.5304L467.886 79.012L468.322 80.4147L466.637 80.933C467.327 84.2872 465.55 86.015 464.078 86.6147L463.428 84.5108C463.965 84.2219 464.4 83.7738 464.673 83.2279C464.945 82.682 465.043 82.065 464.951 81.4616L459.62 83.1081C459.701 87.1737 458.473 88.7593 456.29 89.4301C453.578 90.2737 451.426 88.9524 450.278 86.015L448.044 86.7062L447.648 85.3036ZM459.64 81.6344L464.606 80.0996C464.525 79.7765 464.377 79.4739 464.172 79.2114C463.967 78.9488 463.71 78.7321 463.416 78.5751C463.122 78.4181 462.799 78.3244 462.467 78.2998C462.135 78.2753 461.802 78.3206 461.488 78.4327C460.29 78.7579 459.711 79.6016 459.64 81.6344ZM457.528 83.8196L452.004 85.5373C452.695 87.1737 453.832 87.8141 455.426 87.3262C456.716 86.8688 457.447 86.0252 457.528 83.7688V83.8196Z" fill="white"/>
        <g opacity="0.24">
            <path d="M57.5338 275.309L57.8079 273.978C57.0824 273.839 56.435 273.434 55.9933 272.841C55.5516 272.248 55.3477 271.512 55.4217 270.776L56.7113 271.04C56.697 271.457 56.8164 271.867 57.0522 272.211C57.2879 272.555 57.6275 272.814 58.0212 272.951L58.7624 269.404C56.9346 268.387 56.3254 267.524 56.6097 266.151C56.6863 265.804 56.8313 265.474 57.0363 265.183C57.2413 264.892 57.5021 264.645 57.8036 264.455C58.1052 264.266 58.4413 264.139 58.7924 264.081C59.1436 264.023 59.5027 264.036 59.8489 264.119L60.052 263.102L60.8948 263.275L60.6816 264.291C61.3404 264.422 61.9274 264.792 62.3288 265.331C62.7303 265.87 62.9176 266.539 62.8546 267.208L61.5954 266.944C61.6008 266.587 61.4953 266.236 61.2934 265.942C61.0916 265.647 60.8033 265.422 60.4683 265.298L59.8083 268.499C61.9102 269.607 62.3672 270.684 62.093 271.985C61.7579 273.612 60.4785 274.344 58.6406 274.1L58.3664 275.431L57.5338 275.309ZM59.0264 268.123L59.6458 265.145C59.4574 265.097 59.2612 265.089 59.0695 265.121C58.8777 265.153 58.6946 265.224 58.5316 265.33C58.3686 265.436 58.2292 265.574 58.1222 265.737C58.0151 265.899 57.9427 266.082 57.9095 266.273C57.7267 266.995 58.0008 267.513 59.0264 268.123ZM59.5443 269.821L58.8538 273.134C59.0618 273.196 59.2808 273.212 59.4957 273.182C59.7106 273.151 59.9163 273.074 60.0987 272.956C60.2811 272.839 60.4358 272.683 60.5522 272.499C60.6686 272.316 60.7439 272.109 60.7729 271.894C60.8948 271.111 60.6714 270.502 59.5443 269.821Z" fill="#E6635E"/>
        </g>
        <path d="M57.9602 275.299L58.2344 273.957C57.5088 273.819 56.8614 273.413 56.4198 272.821C55.9781 272.228 55.7742 271.491 55.8482 270.756L57.1377 271.02C57.1202 271.437 57.2383 271.849 57.4745 272.194C57.7107 272.538 58.0522 272.797 58.4476 272.931L59.1889 269.384C57.3611 268.367 56.7519 267.503 57.0362 266.141C57.1115 265.793 57.2557 265.463 57.4604 265.171C57.665 264.879 57.926 264.631 58.2278 264.442C58.5297 264.252 58.8663 264.125 59.218 264.068C59.5696 264.011 59.9292 264.024 60.2754 264.108L60.4785 263.092L61.3213 263.265L61.108 264.281C61.7669 264.412 62.3539 264.782 62.7553 265.321C63.1568 265.86 63.3441 266.529 63.281 267.198L62.0219 266.934C62.0267 266.578 61.9208 266.229 61.7188 265.936C61.5169 265.643 61.229 265.42 60.8948 265.298L60.2348 268.489C62.3367 269.607 62.7936 270.674 62.5195 271.986C62.1844 273.612 60.8948 274.333 59.067 274.089L58.7929 275.431L57.9602 275.299ZM59.4529 268.113L60.0723 265.135C59.8845 265.084 59.6881 265.073 59.4958 265.103C59.3035 265.133 59.1196 265.203 58.956 265.308C58.7924 265.413 58.6526 265.552 58.5458 265.715C58.439 265.877 58.3675 266.061 58.3359 266.253C58.1836 266.975 58.4273 267.503 59.4529 268.113ZM59.9708 269.81L59.2803 273.124C59.4863 273.178 59.7014 273.187 59.9114 273.152C60.1214 273.117 60.3216 273.037 60.4989 272.919C60.6762 272.801 60.8266 272.647 60.9404 272.467C61.0541 272.287 61.1285 272.085 61.1588 271.874C61.3213 271.101 61.0979 270.481 59.9708 269.81Z" fill="#E6635E"/>
        <g opacity="0.24">
            <path d="M90.2709 179.117V173.486C82.8482 172.866 78.5124 168.465 77.8929 162.519H83.3356C83.6397 164.218 84.4756 165.775 85.7223 166.966C86.9691 168.158 88.5621 168.921 90.2709 169.146V154.165C82.0359 151.685 78.817 148.585 78.817 142.832C78.817 136.571 83.6504 132.424 90.2709 131.987V127.779H93.7944V132.048C102.029 132.851 104.69 138.146 105.055 142.019H99.7346C99.4558 140.571 98.7345 139.245 97.6703 138.226C96.6061 137.206 95.2518 136.542 93.7944 136.327V149.825C103.268 152.548 105.979 156.512 105.979 162.021C105.979 168.902 101.4 172.927 93.7944 173.486V179.117H90.2709ZM90.2709 148.778V136.205C85.8132 136.571 84.1784 139.254 84.1784 142.212C84.1784 145.169 85.6305 147.162 90.2709 148.778ZM93.7944 155.211V169.207C98.0694 168.78 100.354 166.605 100.354 162.58C100.374 159.297 98.9325 157.01 93.7944 155.211Z" fill="#E6635E"/>
        </g>
        <path d="M91.9768 178.69V173.11C84.5541 172.49 80.2183 168.089 79.5988 162.143H85.0517C85.3447 163.845 86.1758 165.407 87.4225 166.6C88.6692 167.793 90.2657 168.554 91.9768 168.77V153.738C83.7519 151.258 80.533 148.158 80.533 142.405C80.533 136.144 85.3563 131.997 91.9768 131.56V127.372H95.5003V131.641C103.735 132.444 106.396 137.74 106.761 141.612H101.441C101.162 140.164 100.44 138.839 99.3762 137.819C98.312 136.799 96.9577 136.136 95.5003 135.92V149.418C104.974 152.142 107.685 156.106 107.685 161.615C107.685 168.496 103.106 172.521 95.5003 173.08V178.711L91.9768 178.69ZM91.9768 148.351V135.778C87.5191 136.144 85.8843 138.827 85.8843 141.785C85.8843 144.743 87.3364 146.735 91.9768 148.351ZM95.5003 154.815V168.811C99.7753 168.384 102.06 166.209 102.06 162.184C102.06 158.881 100.638 156.584 95.5003 154.815Z" fill="white"/>
        <path d="M380.884 95.3964C357.418 133.125 307.713 206.55 302.443 250.692C301.153 261.679 300.971 272.788 300.565 283.847C300.412 286.764 300.453 291.663 298.94 294.133C296.361 298.3 290.725 297.568 285.902 298.046C268.731 299.784 250.525 299.967 233.1 299.814C220.275 299.743 207.897 299.479 196.697 299.52C195.997 286.581 194.748 272.077 194.047 259.138C193.417 247.561 192.757 235.832 189.437 224.733C186.604 215.403 181.963 206.733 177.323 198.175C159.303 165.243 140.511 132.756 120.947 100.712C119.657 98.6082 113.433 90.7921 114.133 88.4239C114.216 88.1972 114.315 87.9765 114.428 87.7632C115.01 86.7187 115.786 85.7944 116.712 85.0393C119.748 82.4268 123.136 80.2542 126.775 78.5851C127.557 78.1617 128.435 77.9481 129.324 77.9651C130.573 78.1074 136.432 84.4193 137.315 85.334L187.701 136.591C198.576 147.66 210.913 151.156 225.799 155.618C232.511 157.651 239.578 158.088 246.585 158.169C263.014 158.311 283.14 158.423 295.437 146.44C310.059 132.129 351.579 93.3331 365.145 77.9143L379.656 86.4724C380.684 86.9554 381.572 87.6937 382.235 88.617C383.464 90.7108 382.174 93.3331 380.884 95.3964Z" fill="#E6635E"/>
        <path d="M243.295 173.446C245.193 175.014 247.499 176.008 249.942 176.308C252.385 176.609 254.863 176.205 257.084 175.143C258.89 174.412 260.418 173.127 261.451 171.474C262.297 169.728 262.767 167.823 262.832 165.884L263.502 159.419C263.993 155.921 264.102 152.38 263.827 148.859C263.431 145.434 262.172 142.151 259.765 140.291C256.607 137.831 251.997 138.339 248.138 140.453C235.689 147.334 233.73 165.172 243.295 173.446Z" fill="url(#paint22_linear_84_295)"/>
        <path opacity="0.26" d="M262.1 147.05C262.1 147.05 252.769 170.427 239.02 165.741C239.02 165.741 235.395 164.959 238.766 150.16C242.137 135.361 262.1 147.05 262.1 147.05Z" fill="url(#paint23_linear_84_295)"/>
        <path d="M223.129 128.866C224.195 138.075 228.348 147.588 236.42 151.928C243.904 155.994 253.327 154.683 260.862 150.699C264.03 149.147 266.794 146.878 268.934 144.072C270.756 141.275 272.069 138.178 272.813 134.924C274.326 129.425 275.423 123.744 274.935 118.052C274.542 113.283 273.029 108.674 270.52 104.601C268.011 100.528 264.577 97.105 260.497 94.611C256.417 92.1169 251.807 90.6221 247.041 90.2481C242.275 89.8742 237.488 90.6317 233.07 92.459C226.683 95.0813 223.799 99.0757 223.474 105.845C223.108 113.509 222.225 121.203 223.129 128.866Z" fill="url(#paint24_linear_84_295)"/>
        <path d="M219.341 107.044C219.341 104.158 219.808 101.22 219.077 98.4354C218.387 95.8436 216.681 93.6278 215.767 91.1072C214.994 88.8982 214.83 86.5219 215.291 84.2275C215.752 81.933 216.821 79.8051 218.387 78.0668C220.286 76.0866 222.681 74.6513 225.322 73.9097C228.686 72.8964 232.26 72.8086 235.669 73.6556C237.812 74.1943 239.842 75.0887 241.995 75.5563C245.041 76.2068 248.24 75.9628 251.367 75.9425C256.333 75.9425 261.41 76.471 265.908 78.575C270.407 80.6789 274.285 84.4904 275.565 89.298C275.78 90.6331 276.194 91.9283 276.794 93.14C277.599 94.1429 278.482 95.0808 279.434 95.9452C281.464 98.2525 281.779 101.546 282.013 104.595C282.367 107.004 282.221 109.46 281.586 111.811C280.835 113.986 279.281 115.765 278.093 117.727C276.589 120.444 275.413 123.33 274.59 126.325C274.011 125.187 274.204 123.835 274.072 122.565C273.94 121.294 273.169 119.851 271.889 119.851C271.394 119.915 270.927 120.117 270.543 120.436C270.158 120.754 269.871 121.175 269.716 121.65C269.427 122.608 269.029 123.528 268.528 124.394C268.429 124.571 268.279 124.713 268.098 124.804C267.917 124.894 267.713 124.929 267.513 124.902C267.167 124.801 267.005 124.415 266.893 124.079C265.989 121.03 267.025 117.757 267.167 114.566C267.259 112.178 266.848 109.799 265.959 107.581C265.07 105.364 263.724 103.359 262.009 101.698C258.62 98.6692 254.385 96.7536 249.875 96.2095C245.388 95.686 240.856 95.686 236.37 96.2095C233.74 96.4331 230.988 96.738 228.815 98.2423C226.368 99.9193 225.048 102.816 224.337 105.692C223.778 107.99 223.951 112.665 222.306 114.301C219.96 112.95 219.382 109.413 219.341 107.044Z" fill="#E08142"/>
        <path d="M38.9008 198.012C38.9008 198.012 39.1546 202.86 37.5198 203.551L45.5416 213.421C45.5416 213.421 48.9128 210.819 51.0757 212.12C51.0757 212.12 57.8181 202.86 62.8342 198.185C67.8504 193.509 71.1302 190.836 71.1302 190.836C71.1302 190.836 64.8245 183.213 62.3164 181.689C59.8083 180.164 58.0922 179.209 58.0922 179.209C58.0922 179.209 52.5582 179.839 38.9008 198.012Z" fill="white"/>
        <path d="M54.5484 214.193C54.5484 214.193 66.9975 195.156 68.8963 196.193C70.7951 197.229 68.1144 205.97 67.2513 207.536C66.3882 209.101 59.5544 214.193 59.5544 214.193L52.7308 217.242L54.5484 214.193Z" fill="url(#paint25_linear_84_295)"/>
        <path d="M223.027 299.774L196.778 299.52C196.078 286.581 194.829 272.077 194.128 259.138C193.499 247.561 192.839 235.832 189.518 224.733C186.685 215.403 182.045 206.733 177.404 198.175C159.384 165.243 140.592 132.756 121.028 100.712C119.738 98.6082 113.514 90.7921 114.215 88.4239C114.298 88.1972 114.396 87.9765 114.509 87.7632L120.683 82.7524L124.511 91.0462C124.511 91.0462 180.511 170.671 194.331 181.069C208.151 191.466 217.848 216.358 217.148 221.897C216.518 226.847 230.44 284.528 233.394 297.355C233.77 298.9 223.027 299.774 223.027 299.774Z" fill="url(#paint26_linear_84_295)"/>
        <g opacity="0.24">
            <path d="M63.1693 194.089L62.1539 192.859C61.4925 193.422 60.6447 193.718 59.7768 193.687C58.909 193.657 58.0836 193.304 57.4627 192.696L58.6507 191.68C59.0213 192 59.4847 192.192 59.9728 192.229C60.4609 192.266 60.9478 192.144 61.3619 191.883L58.6609 188.6C56.4168 189.556 55.1475 189.454 54.1118 188.204C53.8541 187.877 53.6636 187.503 53.5511 187.103C53.4386 186.702 53.4065 186.284 53.4565 185.871C53.5066 185.458 53.6378 185.059 53.8426 184.697C54.0474 184.335 54.3218 184.017 54.65 183.762L53.8986 182.837L54.6804 182.258L55.4521 183.193C56.054 182.683 56.8238 182.415 57.6119 182.441C58.4001 182.467 59.1504 182.786 59.7169 183.335L58.539 184.291C58.2152 184.024 57.8168 183.864 57.3987 183.833C56.9805 183.802 56.563 183.902 56.2036 184.118L58.6507 187.065C61.2096 185.947 62.5195 186.323 63.5146 187.533C64.7534 189.027 64.53 190.735 62.9155 192.239L63.9309 193.469L63.1693 194.089ZM57.7267 187.462L55.4521 184.707C55.2698 184.844 55.118 185.017 55.0063 185.215C54.8946 185.414 54.8256 185.633 54.8036 185.86C54.7816 186.087 54.8071 186.316 54.8786 186.532C54.9501 186.748 55.0659 186.947 55.2186 187.116C55.6958 187.787 56.3863 187.95 57.7267 187.462ZM59.656 188.224L62.1844 191.273C62.3854 191.125 62.5528 190.936 62.6756 190.719C62.7984 190.501 62.8738 190.261 62.8968 190.012C62.9198 189.763 62.8899 189.512 62.8092 189.276C62.7284 189.04 62.5985 188.823 62.4281 188.641C61.7884 187.929 61.0674 187.685 59.6154 188.224H59.656Z" fill="#E6635E"/>
        </g>
        <path d="M63.4638 193.682L62.4484 192.452C61.7882 193.017 60.9411 193.314 60.0732 193.286C59.2054 193.258 58.3794 192.906 57.7571 192.3L58.9553 191.283C59.327 191.602 59.791 191.793 60.2791 191.827C60.7672 191.862 61.2535 191.739 61.6665 191.477L58.9553 188.204C56.7113 189.149 55.4521 189.058 54.4062 187.797C54.1478 187.471 53.9569 187.096 53.8444 186.695C53.732 186.294 53.7004 185.875 53.7514 185.461C53.8025 185.048 53.9351 184.649 54.1417 184.288C54.3482 183.926 54.6246 183.609 54.9546 183.356L54.193 182.441L54.9647 181.8L55.7365 182.736C56.3354 182.225 57.1028 181.955 57.8892 181.98C58.6757 182.004 59.4249 182.321 59.9911 182.868L58.8335 183.884C58.5095 183.621 58.1125 183.465 57.6965 183.436C57.2804 183.406 56.8655 183.506 56.5082 183.721L58.9452 186.669C61.504 185.551 62.8139 185.917 63.809 187.126C65.0479 188.631 64.8245 190.338 63.2201 191.832L64.2355 193.072L63.4638 193.682ZM57.9805 187.055L55.6958 184.291C55.5135 184.427 55.3617 184.6 55.25 184.798C55.1383 184.997 55.0692 185.217 55.0473 185.443C55.0253 185.67 55.0508 185.899 55.1223 186.115C55.1938 186.332 55.3096 186.531 55.4623 186.699C56.0208 187.34 56.7113 187.543 57.9805 187.055ZM59.92 187.828L62.4484 190.877C62.6476 190.726 62.813 190.535 62.9341 190.317C63.0551 190.098 63.129 189.856 63.151 189.607C63.173 189.358 63.1426 189.108 63.0618 188.871C62.981 188.635 62.8516 188.418 62.6819 188.234C62.0828 187.533 61.3619 187.34 59.92 187.828Z" fill="#E6635E"/>
    </g>
    <defs>
        <linearGradient id="paint0_linear_84_295" x1="141.692" y1="67.791" x2="316.273" y2="611.792" gradientUnits="userSpaceOnUse">
            <stop stop-color="#010101" stop-opacity="0"/>
            <stop offset="0.95" stop-color="#010101"/>
        </linearGradient>
        <linearGradient id="paint1_linear_84_295" x1="149.856" y1="96.8397" x2="140.852" y2="310.049" gradientUnits="userSpaceOnUse">
            <stop stop-color="#010101" stop-opacity="0"/>
            <stop offset="0.95" stop-color="#010101"/>
        </linearGradient>
        <linearGradient id="paint2_linear_84_295" x1="242.269" y1="95.5895" x2="233.255" y2="308.789" gradientUnits="userSpaceOnUse">
            <stop stop-color="#010101" stop-opacity="0"/>
            <stop offset="0.95" stop-color="#010101"/>
        </linearGradient>
        <linearGradient id="paint3_linear_84_295" x1="316.446" y1="99.218" x2="307.432" y2="312.427" gradientUnits="userSpaceOnUse">
            <stop stop-color="#010101" stop-opacity="0"/>
            <stop offset="0.95" stop-color="#010101"/>
        </linearGradient>
        <linearGradient id="paint4_linear_84_295" x1="143.845" y1="159.734" x2="185.412" y2="374.911" gradientUnits="userSpaceOnUse">
            <stop stop-color="#010101" stop-opacity="0"/>
            <stop offset="0.95" stop-color="#010101"/>
        </linearGradient>
        <linearGradient id="paint5_linear_84_295" x1="244.117" y1="344.963" x2="244.636" y2="320.559" gradientUnits="userSpaceOnUse">
            <stop stop-color="white" stop-opacity="0"/>
            <stop offset="0.95" stop-color="white"/>
        </linearGradient>
        <linearGradient id="paint6_linear_84_295" x1="77.0197" y1="59.8732" x2="108.01" y2="59.8732" gradientUnits="userSpaceOnUse">
            <stop stop-color="#010101" stop-opacity="0"/>
            <stop offset="0.95" stop-color="#010101"/>
        </linearGradient>
        <linearGradient id="paint7_linear_84_295" x1="80.4315" y1="48.7945" x2="98.8309" y2="48.7945" gradientUnits="userSpaceOnUse">
            <stop stop-color="#E5C6D6"/>
            <stop offset="0.42" stop-color="#EAD4D0"/>
            <stop offset="1" stop-color="#F0E9CB"/>
        </linearGradient>
        <linearGradient id="paint8_linear_84_295" x1="79.5074" y1="54.9031" x2="97.8967" y2="54.9031" gradientUnits="userSpaceOnUse">
            <stop stop-color="#E5C6D6"/>
            <stop offset="0.42" stop-color="#EAD4D0"/>
            <stop offset="1" stop-color="#F0E9CB"/>
        </linearGradient>
        <linearGradient id="paint9_linear_84_295" x1="78.3499" y1="60.3306" x2="96.7391" y2="60.3306" gradientUnits="userSpaceOnUse">
            <stop stop-color="#E5C6D6"/>
            <stop offset="0.42" stop-color="#EAD4D0"/>
            <stop offset="1" stop-color="#F0E9CB"/>
        </linearGradient>
        <linearGradient id="paint10_linear_84_295" x1="77.1009" y1="65.748" x2="95.5003" y2="65.748" gradientUnits="userSpaceOnUse">
            <stop stop-color="#E5C6D6"/>
            <stop offset="0.42" stop-color="#EAD4D0"/>
            <stop offset="1" stop-color="#F0E9CB"/>
        </linearGradient>
        <linearGradient id="paint11_linear_84_295" x1="91.7027" y1="64.1726" x2="129.415" y2="64.1726" gradientUnits="userSpaceOnUse">
            <stop stop-color="#E5C6D6"/>
            <stop offset="0.42" stop-color="#EAD4D0"/>
            <stop offset="1" stop-color="#F0E9CB"/>
        </linearGradient>
        <linearGradient id="paint12_linear_84_295" x1="380.438" y1="66.988" x2="420.069" y2="66.988" gradientUnits="userSpaceOnUse">
            <stop stop-color="#010101" stop-opacity="0"/>
            <stop offset="0.95" stop-color="#010101"/>
        </linearGradient>
        <linearGradient id="paint13_linear_84_295" x1="414.048" y1="44.4646" x2="397.852" y2="44.4646" gradientUnits="userSpaceOnUse">
            <stop stop-color="#E5C6D6"/>
            <stop offset="0.42" stop-color="#EAD4D0"/>
            <stop offset="1" stop-color="#F0E9CB"/>
        </linearGradient>
        <linearGradient id="paint14_linear_84_295" x1="414.86" y1="49.8414" x2="398.664" y2="49.8414" gradientUnits="userSpaceOnUse">
            <stop stop-color="#E5C6D6"/>
            <stop offset="0.42" stop-color="#EAD4D0"/>
            <stop offset="1" stop-color="#F0E9CB"/>
        </linearGradient>
        <linearGradient id="paint15_linear_84_295" x1="415.886" y1="54.6286" x2="399.69" y2="54.6286" gradientUnits="userSpaceOnUse">
            <stop stop-color="#E5C6D6"/>
            <stop offset="0.42" stop-color="#EAD4D0"/>
            <stop offset="1" stop-color="#F0E9CB"/>
        </linearGradient>
        <linearGradient id="paint16_linear_84_295" x1="416.972" y1="59.3956" x2="400.787" y2="59.3956" gradientUnits="userSpaceOnUse">
            <stop stop-color="#E5C6D6"/>
            <stop offset="0.42" stop-color="#EAD4D0"/>
            <stop offset="1" stop-color="#F0E9CB"/>
        </linearGradient>
        <linearGradient id="paint17_linear_84_295" x1="404.117" y1="58.0132" x2="370.913" y2="58.0132" gradientUnits="userSpaceOnUse">
            <stop stop-color="#E5C6D6"/>
            <stop offset="0.42" stop-color="#EAD4D0"/>
            <stop offset="1" stop-color="#F0E9CB"/>
        </linearGradient>
        <linearGradient id="paint18_linear_84_295" x1="142.809" y1="232.712" x2="237.893" y2="232.712" gradientUnits="userSpaceOnUse">
            <stop stop-color="#010101" stop-opacity="0"/>
            <stop offset="0.95" stop-color="#010101"/>
        </linearGradient>
        <linearGradient id="paint19_linear_84_295" x1="157.583" y1="133.603" x2="111.861" y2="268.899" gradientUnits="userSpaceOnUse">
            <stop stop-color="white" stop-opacity="0"/>
            <stop offset="0.95" stop-color="white"/>
        </linearGradient>
        <linearGradient id="paint20_linear_84_295" x1="174.104" y1="53.8968" x2="276.276" y2="331.066" gradientUnits="userSpaceOnUse">
            <stop stop-color="#010101" stop-opacity="0"/>
            <stop offset="0.95" stop-color="#010101"/>
        </linearGradient>
        <linearGradient id="paint21_linear_84_295" x1="492.621" y1="63.6136" x2="332.093" y2="152.001" gradientUnits="userSpaceOnUse">
            <stop stop-color="#010101" stop-opacity="0"/>
            <stop offset="0.95" stop-color="#010101"/>
        </linearGradient>
        <linearGradient id="paint22_linear_84_295" x1="237.263" y1="157.519" x2="264.009" y2="157.519" gradientUnits="userSpaceOnUse">
            <stop stop-color="#E5C6D6"/>
            <stop offset="0.42" stop-color="#EAD4D0"/>
            <stop offset="1" stop-color="#F0E9CB"/>
        </linearGradient>
        <linearGradient id="paint23_linear_84_295" x1="243.508" y1="175.417" x2="255.725" y2="128.181" gradientUnits="userSpaceOnUse">
            <stop stop-color="#010101" stop-opacity="0"/>
            <stop offset="0.95" stop-color="#010101"/>
        </linearGradient>
        <linearGradient id="paint24_linear_84_295" x1="222.743" y1="122.3" x2="275.057" y2="122.3" gradientUnits="userSpaceOnUse">
            <stop stop-color="#E5C6D6"/>
            <stop offset="0.42" stop-color="#EAD4D0"/>
            <stop offset="1" stop-color="#F0E9CB"/>
        </linearGradient>
        <linearGradient id="paint25_linear_84_295" x1="52.7308" y1="206.692" x2="69.5665" y2="206.692" gradientUnits="userSpaceOnUse">
            <stop stop-color="#010101" stop-opacity="0"/>
            <stop offset="0.95" stop-color="#010101"/>
        </linearGradient>
        <linearGradient id="paint26_linear_84_295" x1="199.53" y1="182.329" x2="-64.0179" y2="275.617" gradientUnits="userSpaceOnUse">
            <stop stop-color="#010101" stop-opacity="0"/>
            <stop offset="0.95" stop-color="#010101"/>
        </linearGradient>
        <clipPath id="clip0_84_295">
            <rect width="509" height="384" fill="white"/>
        </clipPath>
    </defs>
</svg>
