<svg width="406" height="306" viewBox="0 0 406 306" fill="none" xmlns="http://www.w3.org/2000/svg">
<path opacity="0.24" d="M357.007 268.68C376.066 257.152 389.29 237.414 392.517 216.184C395.744 194.953 389.004 172.591 374.694 155.989C358.959 137.729 335.353 126.895 319.129 109.019C295.108 82.5635 289.65 43.4267 262.682 19.6777C244.376 3.53596 217.574 -3.02329 192.98 1.30431C168.387 5.6319 146.364 20.3186 132.371 40.0038C112.535 67.9673 108.554 104.594 85.9213 130.574C75.4491 142.592 61.637 151.511 49.7324 162.239C22.7188 186.479 5.3783 223.602 15.7072 257.484C18.1123 265.385 22.0403 273.045 28.2301 278.813C39.7653 289.557 57.0229 292.165 73.1119 293.643C128.443 298.717 184.189 296.832 239.732 294.94C251.976 294.525 263.179 293.334 274.496 288.629C283.98 284.694 292.349 279.167 302.979 278.745C323.049 277.946 338.693 279.755 357.007 268.68Z" fill="#E6635E"/>
<path d="M254.396 171.045C254.083 172.792 254.314 174.592 255.059 176.202C255.223 176.571 255.479 176.891 255.802 177.132C256.126 177.372 256.506 177.525 256.906 177.575C257.588 177.491 258.221 177.177 258.701 176.685C259.196 176.396 259.581 175.952 259.798 175.422C260.015 174.892 260.051 174.305 259.9 173.752C259.575 170.736 259.274 167.615 260.163 164.705C260.309 164.365 260.346 163.988 260.269 163.627C259.764 162.224 256.808 163.438 256.183 164.192C254.931 165.745 254.607 169.13 254.396 171.045Z" fill="#E6635E"/>
<path d="M254.396 171.045C254.083 172.792 254.314 174.592 255.059 176.202C255.223 176.571 255.479 176.891 255.802 177.132C256.126 177.372 256.506 177.525 256.906 177.575C257.588 177.491 258.221 177.177 258.701 176.685C259.196 176.396 259.581 175.952 259.798 175.422C260.015 174.892 260.051 174.305 259.9 173.752C259.575 170.736 259.274 167.615 260.163 164.705C260.309 164.365 260.346 163.988 260.269 163.627C259.764 162.224 256.808 163.438 256.183 164.192C254.931 165.745 254.607 169.13 254.396 171.045Z" fill="url(#paint0_linear_84_493)"/>
<path d="M277.21 257.824C287.705 245.512 287.871 227.757 288.067 211.577C288.15 205.199 289.25 197.396 295.199 195.081C298.795 193.686 303.1 195.081 305.709 197.946C308.317 200.811 309.388 204.799 309.32 208.659C309.26 211.758 308.566 214.834 308.717 217.933C309.358 228.842 320.516 235.982 324.663 246.092C327.58 253.217 326.713 261.616 323.049 268.394C319.385 275.172 313.12 280.344 306.063 283.427C300.318 285.938 293.646 287.114 287.757 284.935C281.869 282.756 277.248 276.536 278.386 270.369" fill="#E6635E"/>
<path d="M277.21 257.824C287.705 245.512 287.871 227.757 288.067 211.577C288.15 205.199 289.25 197.396 295.199 195.081C298.795 193.686 303.1 195.081 305.709 197.946C308.317 200.811 309.388 204.799 309.32 208.659C309.26 211.758 308.566 214.834 308.717 217.933C309.358 228.842 320.516 235.982 324.663 246.092C327.58 253.217 326.713 261.616 323.049 268.394C319.385 275.172 313.12 280.344 306.063 283.427C300.318 285.938 293.646 287.114 287.757 284.935C281.869 282.756 277.248 276.536 278.386 270.369" fill="url(#paint1_linear_84_493)"/>
<path d="M322.084 220.572C322.401 217.661 322.439 214.623 323.75 212.014C324.522 210.475 325.697 209.174 327.151 208.251C328.605 207.328 330.282 206.818 332.004 206.774C333.725 206.731 335.426 207.156 336.924 208.005C338.423 208.854 339.662 210.093 340.51 211.592C343.865 217.518 340.201 224.726 338.015 231.194C335.191 239.579 334.957 248.619 337.344 257.137C338.806 262.309 341.234 267.693 339.553 272.827C337.796 278.157 331.614 281.263 326.05 280.472C320.486 279.68 315.766 275.639 313.052 270.723C308.996 263.357 307.48 255.087 311.544 247.834C316.324 239.179 320.991 230.546 322.084 220.572Z" fill="#E6635E"/>
<path d="M322.084 220.572C322.401 217.661 322.439 214.623 323.75 212.014C324.522 210.475 325.697 209.174 327.151 208.251C328.605 207.328 330.282 206.818 332.004 206.774C333.725 206.731 335.426 207.156 336.924 208.005C338.423 208.854 339.662 210.093 340.51 211.592C343.865 217.518 340.201 224.726 338.015 231.194C335.191 239.579 334.957 248.619 337.344 257.137C338.806 262.309 341.234 267.693 339.553 272.827C337.796 278.157 331.614 281.263 326.05 280.472C320.486 279.68 315.766 275.639 313.052 270.723C308.996 263.357 307.48 255.087 311.544 247.834C316.324 239.179 320.991 230.546 322.084 220.572Z" fill="url(#paint2_linear_84_493)"/>
<g opacity="0.24">
<path d="M265.132 71.0509C264.701 72.7457 263.932 74.3358 262.87 75.7253C263.271 76.2351 263.726 76.7002 264.227 77.1126C264.33 77.213 264.462 77.2789 264.604 77.3011C264.785 77.291 264.956 77.2161 265.087 77.09L270.236 73.1016C270.351 73.0343 270.441 72.931 270.492 72.8076C270.598 72.5211 270.304 72.2497 270.04 72.0537C269.168 71.4082 268.168 70.9559 267.107 70.7267C266.574 70.624 266.021 70.6909 265.528 70.9181C265.034 71.1453 264.624 71.5213 264.355 71.9934" fill="#E6635E"/>
<path d="M271.57 87.7129C269.84 86.5344 267.927 85.6504 265.908 85.0968C265.481 84.9265 265.024 84.844 264.564 84.8544C264.104 84.8647 263.651 84.9677 263.232 85.1571C262.056 85.8658 262.048 87.6903 262.855 88.8061C263.662 89.9219 265.011 90.4799 266.278 91.0001C266.505 91.1759 266.767 91.3004 267.047 91.3649C267.327 91.4294 267.617 91.4323 267.898 91.3735C268.179 91.3147 268.444 91.1956 268.675 91.0244C268.905 90.8532 269.096 90.6339 269.233 90.3818L271.638 87.3133" fill="#E6635E"/>
<path d="M271.518 79.5101C271.422 79.5297 271.336 79.5832 271.276 79.6609C271.247 79.7489 271.247 79.8443 271.276 79.9323L271.601 81.1989C271.611 81.263 271.643 81.3217 271.691 81.3648C271.74 81.3799 271.793 81.3799 271.842 81.3648L275.483 81.2291C275.672 81.2291 275.8 79.7212 275.77 79.5478C275.664 78.9296 275.71 78.9597 275.106 78.8692C273.879 78.8384 272.658 79.0564 271.518 79.5101Z" fill="#E6635E"/>
<path d="M258.957 69.9049C258.169 70.0403 257.407 70.2945 256.695 70.6589C256.49 70.7377 256.316 70.8805 256.198 71.066C256.143 71.2334 256.148 71.4148 256.213 71.5787C256.277 71.7426 256.397 71.8786 256.552 71.9632C256.885 72.1032 257.257 72.1193 257.6 72.0084C257.846 71.9564 258.078 71.8547 258.283 71.7095C258.488 71.5642 258.661 71.3786 258.791 71.164C258.91 70.9434 258.941 70.6865 258.88 70.4437C258.819 70.2009 258.669 69.9899 258.46 69.8522" fill="#E6635E"/>
<path d="M264.016 66.9043C263.399 66.2514 262.566 65.8443 261.671 65.7583C261.565 65.7283 261.453 65.7283 261.347 65.7583C261.247 65.8221 261.175 65.9209 261.144 66.0353C261.114 66.1496 261.127 66.2714 261.181 66.3765C261.302 66.5828 261.477 66.7523 261.686 66.8666C262.032 67.1386 262.46 67.2849 262.9 67.2813C263.338 67.2209 263.714 66.7158 263.496 66.3388" fill="#E6635E"/>
<path d="M272.324 66.663H269.557C269.218 66.663 268.804 66.7233 268.69 67.04C268.577 67.3566 268.902 67.6884 269.241 67.7336C269.576 67.7458 269.911 67.6973 270.228 67.5904C270.771 67.4779 271.334 67.5144 271.857 67.6959C272.055 67.8026 272.285 67.8347 272.505 67.7864C272.905 67.6205 272.784 67.0324 272.596 66.6329" fill="#E6635E"/>
<path d="M275.589 99.6402L274.119 100.711C273.602 101.025 273.173 101.466 272.875 101.992C272.733 102.259 272.695 102.569 272.767 102.863C272.839 103.156 273.017 103.413 273.267 103.583C273.968 103.945 274.775 103.274 275.122 102.565C275.468 101.857 275.702 101.02 276.373 100.613C276.637 100.454 276.961 100.372 277.127 100.115C277.214 99.9236 277.223 99.706 277.152 99.5078C277.082 99.3097 276.938 99.1464 276.75 99.0521C276.368 98.879 275.945 98.8138 275.529 98.8636" fill="#E6635E"/>
<path d="M249.834 98.0494C249.367 97.778 248.734 97.5141 248.327 97.8911C247.919 98.268 248.379 99.1727 249.013 99.3386C249.646 99.5045 250.317 99.3386 250.958 99.4291C251.042 99.0969 251.056 98.7505 250.998 98.4127C250.939 98.0749 250.81 97.7533 250.619 97.4688" fill="#E6635E"/>
<path d="M191.284 82.0132C189.929 79.7255 188.789 77.3178 187.876 74.8206L185.154 77.8364C184.915 78.0493 184.76 78.3408 184.717 78.6581C184.75 78.9651 184.885 79.252 185.102 79.4724L187.461 82.3977C188.095 83.1893 188.826 84.0337 189.829 84.1694C190.831 84.3051 191.947 83.1968 191.404 82.3374" fill="#E6635E"/>
<path d="M193.191 54.3437L188.487 58.415C188.607 59.6514 190.432 59.6363 191.578 59.1689C192.578 58.8607 193.443 58.2195 194.028 57.3519C194.511 56.4321 194.156 55.0298 193.139 54.8111" fill="#E6635E"/>
<path d="M168.093 64.9516C168.334 66.1127 167.965 67.334 168.153 68.5102C168.342 69.6863 169.555 70.8851 170.603 70.3196C170.884 70.1195 171.115 69.8564 171.276 69.5514C171.437 69.2463 171.524 68.9078 171.531 68.5629C171.754 66.9158 171.541 65.2389 170.912 63.7001" fill="#E6635E"/>
<path d="M140.016 110.512C137.995 112.876 135.544 114.836 132.793 116.287C132.258 116.566 131.655 116.913 131.565 117.508C131.564 117.774 131.619 118.036 131.725 118.279C131.832 118.521 131.987 118.739 132.183 118.918L134.399 121.557C134.49 121.725 134.621 121.869 134.78 121.975C134.938 122.082 135.121 122.148 135.311 122.168C135.501 122.188 135.693 122.161 135.87 122.09C136.048 122.019 136.206 121.906 136.329 121.761C137.883 120.695 139.411 119.594 140.913 118.458C141.622 117.994 142.221 117.382 142.67 116.664C143.424 115.284 142.949 113.505 141.969 112.276C140.903 111.117 139.623 110.175 138.199 109.502" fill="#E6635E"/>
<path d="M149.305 122.175C149.528 123.178 149.462 124.224 149.116 125.191C148.759 126.168 148.778 127.243 149.169 128.207C149.659 129.112 151.129 129.473 151.695 128.614C152.185 126.759 152.675 124.724 151.891 122.967C151.107 121.21 148.468 120.245 147.231 121.723" fill="#E6635E"/>
<path d="M290.147 136.681C289.786 138.506 290.223 141.077 292.078 141.205C294.068 141.318 294.543 138.023 292.967 136.794C291.391 135.565 289.16 135.882 287.2 136.244" fill="#E6635E"/>
<path d="M300.989 124.95C298.596 124.681 296.174 124.978 293.917 125.817C293.849 128.697 297.559 130.868 300.039 129.406L300.212 124.882" fill="#E6635E"/>
<path d="M131.602 208.071C129.848 206.087 127.692 204.497 125.277 203.408C122.862 202.319 120.243 201.755 117.594 201.753C116.699 203.676 116.46 205.841 116.916 207.913C120.398 208.766 123.676 210.303 126.558 212.437L130.192 206.511" fill="#E6635E"/>
<path d="M156.022 192.08C152.945 191.424 149.777 191.304 146.658 191.726C146.38 192.384 146.303 193.11 146.437 193.812C146.571 194.514 146.911 195.16 147.412 195.669C148.513 196.154 149.748 196.237 150.904 195.905C152.059 195.573 153.062 194.847 153.738 193.852C154.365 192.824 154.652 191.625 154.559 190.424C154.465 189.224 153.996 188.083 153.218 187.165" fill="#E6635E"/>
<path d="M123.927 146.784C120.291 142.167 116.115 138.004 111.487 134.382C110.423 137.578 110.131 140.98 110.635 144.311C114.601 146.321 118.584 148.309 122.585 150.275" fill="#E6635E"/>
<path d="M289.801 90.2009C289.658 89.6233 289.402 89.08 289.047 88.6026C288.87 88.3646 288.627 88.184 288.348 88.0834C288.069 87.9828 287.767 87.9667 287.479 88.0371C287.197 88.1612 286.96 88.3687 286.799 88.6315C286.639 88.8943 286.563 89.1999 286.581 89.5073C286.629 90.1185 286.801 90.7136 287.086 91.2564C286.684 91.2023 286.276 91.2942 285.935 91.5156C285.595 91.7369 285.345 92.073 285.232 92.4627C285.142 92.8588 285.204 93.2739 285.405 93.6268C285.606 93.9797 285.931 94.2448 286.317 94.3702C286.713 94.4655 287.13 94.4042 287.481 94.199C287.833 93.9938 288.091 93.6607 288.202 93.2694C288.145 93.4442 288.133 93.6307 288.168 93.8112C288.204 93.9918 288.284 94.1603 288.403 94.3009C288.522 94.4414 288.674 94.5493 288.846 94.6142C289.018 94.6791 289.204 94.6989 289.386 94.6717C289.563 94.6127 289.725 94.5146 289.859 94.3846C289.993 94.2546 290.096 94.0961 290.16 93.9209C290.225 93.7456 290.249 93.5581 290.231 93.3723C290.213 93.1864 290.154 93.0069 290.057 92.8472C290.138 93.0218 290.264 93.1713 290.423 93.2797C290.582 93.3882 290.767 93.4515 290.959 93.4629C291.151 93.4743 291.342 93.4335 291.513 93.3447C291.684 93.2558 291.827 93.1224 291.928 92.9586C292.028 92.7948 292.083 92.6067 292.085 92.4144C292.087 92.2221 292.038 92.0328 291.941 91.8666C291.844 91.7004 291.704 91.5636 291.535 91.4708C291.367 91.3779 291.177 91.3325 290.984 91.3393C291.207 91.3325 291.424 91.2614 291.608 91.1347C291.792 91.0079 291.935 90.8308 292.021 90.6247C292.106 90.4185 292.131 90.192 292.091 89.9723C292.051 89.7526 291.949 89.549 291.797 89.3859C291.644 89.2228 291.448 89.1071 291.231 89.0527C291.015 88.9984 290.787 89.0076 290.576 89.0792C290.364 89.1509 290.178 89.2821 290.039 89.4569C289.9 89.6318 289.815 89.843 289.793 90.0652" fill="#E6635E"/>
<path d="M128.669 135.972C127.644 135.626 126.31 135.369 125.654 136.221C125.507 136.44 125.407 136.687 125.357 136.946C125.308 137.205 125.312 137.471 125.367 137.729C125.415 138.188 125.578 138.627 125.842 139.006C126.105 139.384 126.461 139.69 126.875 139.893C127.3 140.075 127.779 140.085 128.211 139.921C128.643 139.756 128.994 139.43 129.19 139.011C129.222 139.796 129.417 140.566 129.763 141.273C129.95 141.624 130.243 141.907 130.6 142.083C130.957 142.259 131.36 142.318 131.753 142.253C132.192 142.107 132.569 141.817 132.824 141.431C133.525 140.458 133.578 138.807 132.484 138.325C133.309 138.627 134.199 138.705 135.063 138.551C135.508 138.517 135.921 138.307 136.211 137.969C136.502 137.63 136.646 137.19 136.612 136.745C136.578 136.3 136.369 135.887 136.03 135.597C135.692 135.306 135.251 135.162 134.807 135.196C133.982 135.161 133.161 135.311 132.401 135.633C132.595 135.06 132.671 134.453 132.626 133.85C132.58 133.246 132.414 132.658 132.138 132.12C132.033 131.896 131.868 131.706 131.663 131.569C131.173 131.298 130.569 131.652 130.155 132.059C129.678 132.566 129.319 133.171 129.101 133.831C128.884 134.491 128.813 135.191 128.896 135.882" fill="#E6635E"/>
<path d="M121.484 98.7958C121.572 97.8931 121.44 96.9827 121.1 96.1419C120.915 95.7281 120.592 95.3917 120.186 95.1908C119.78 94.9898 119.317 94.9369 118.876 95.0412C118.276 95.3472 117.805 95.8581 117.549 96.4812C117.079 97.1834 116.818 98.0041 116.795 98.8485C116.855 99.6929 117.549 100.537 118.408 100.409C117.088 101.619 116.259 103.272 116.079 105.053C116.038 105.238 116.04 105.43 116.085 105.614C116.129 105.799 116.215 105.97 116.335 106.116C116.481 106.217 116.647 106.284 116.823 106.31C116.998 106.336 117.177 106.321 117.345 106.267C118.226 106.053 119.003 105.534 119.54 104.804C120.076 104.073 120.338 103.176 120.278 102.271C120.572 103.244 121.175 104.443 122.186 104.322C122.46 104.259 122.715 104.129 122.926 103.943C123.138 103.758 123.301 103.523 123.399 103.259C123.751 102.432 123.782 101.504 123.485 100.656C123.188 99.8079 122.585 99.1015 121.794 98.6751" fill="#E6635E"/>
</g>
<path d="M142.135 116.084C142.27 116.244 142.356 116.441 142.384 116.649C142.798 118.76 141.946 120.894 141.117 122.884C141.174 122.494 141.145 122.097 141.034 121.719C140.922 121.342 140.729 120.993 140.469 120.698C139.943 120.113 139.301 119.646 138.584 119.325C138.443 119.265 138.315 119.178 138.207 119.069C138.108 118.914 138.06 118.732 138.071 118.549C138.051 118.065 138.166 117.586 138.403 117.163C138.64 116.741 138.99 116.394 139.413 116.159C140.039 115.797 141.532 115.473 142.135 116.084Z" fill="#606161"/>
<path d="M230.323 193.942C235.107 191.295 240.053 188.948 245.13 186.916L242.8 209.926C241.722 220.33 240.606 230.885 236.309 240.415C232.011 249.945 223.854 258.321 213.57 260.115C192.792 263.749 197.315 241.75 201.206 230.162C206.256 214.989 216.589 202.135 230.323 193.942Z" fill="#E6635E"/>
<path d="M162.355 196.559C162.319 191.091 162.626 185.627 163.275 180.198L182.335 193.302C190.937 199.22 199.675 205.282 205.963 213.658C212.251 222.034 215.681 233.177 212.319 243.061C205.533 263.026 188.396 248.497 180.103 239.518C169.232 227.787 162.934 212.542 162.355 196.559Z" fill="#E6635E"/>
<path d="M224.962 202.364C229.739 199.707 234.677 197.35 239.747 195.307L237.417 218.317C236.362 228.706 235.253 239.299 230.948 248.806C226.643 258.314 218.493 266.712 208.187 268.514C187.409 272.141 191.932 250.148 195.815 238.553C200.883 223.389 211.226 210.547 224.962 202.364Z" fill="url(#paint3_linear_84_493)"/>
<path d="M162.355 196.559C162.319 191.091 162.626 185.627 163.275 180.198L182.335 193.302C190.937 199.22 199.675 205.282 205.963 213.658C212.251 222.034 215.681 233.177 212.319 243.061C205.533 263.026 188.396 248.497 180.103 239.518C169.232 227.787 162.934 212.542 162.355 196.559Z" fill="url(#paint4_linear_84_493)"/>
<path d="M172.149 213.454C172.11 207.99 172.415 202.528 173.061 197.102L192.121 210.205C200.723 216.116 209.461 222.177 215.757 230.523C222.052 238.87 225.475 250.05 222.112 259.927C215.327 279.899 198.19 265.363 189.889 256.383C179.021 244.663 172.725 229.428 172.149 213.454Z" fill="url(#paint5_linear_84_493)"/>
<path d="M72.26 216.515C76.2558 205.734 82.4004 195.895 87.2557 185.476C102.227 209.963 107.862 239.03 103.126 267.338C102.448 271.296 101.55 275.277 99.6278 278.79C96.8081 283.955 87.8287 291.856 81.1715 289.994C75.238 288.328 71.8151 274.32 70.2469 268.627C65.4845 251.47 66.1881 233.254 72.26 216.515Z" fill="#E6635E"/>
<path d="M72.6068 216.862C76.6026 206.081 82.7548 196.25 87.6101 185.823C102.581 210.313 108.216 239.382 103.48 267.693C102.802 271.643 101.897 275.624 99.9747 279.145C97.1549 284.302 88.1756 292.211 81.5258 290.341C75.5848 288.675 72.162 274.674 70.5938 268.974C65.8313 251.817 66.535 233.601 72.6068 216.862Z" fill="url(#paint6_linear_84_493)"/>
<path d="M79.935 232.431C82.0008 226.837 85.2126 221.74 87.7081 216.327C95.4738 229.026 98.3971 244.1 95.9411 258.781C95.6713 260.849 95.0571 262.857 94.1241 264.722C92.6615 267.398 88.0097 271.507 84.5567 270.527C81.4731 269.668 79.7013 262.4 78.8871 259.452C76.4188 250.555 76.7851 241.11 79.935 232.431Z" fill="url(#paint7_linear_84_493)"/>
<path d="M34.4953 278.021C35.2492 269.05 37.5111 259.927 35.2492 251.181C32.3466 239.623 21.9649 230.29 21.8744 218.362C21.8744 212.437 24.468 206.812 27.6646 201.821C28.4148 200.508 29.4166 199.355 30.6125 198.428C33.0628 196.747 36.5159 197.101 39.0114 198.707C41.5069 200.313 43.1505 202.975 44.2437 205.742C48.0134 215.384 45.7968 226.693 50.049 236.155C54.4897 246.032 65.075 251.86 70.3223 261.337C72.6985 265.761 73.8275 270.747 73.5885 275.763C73.3494 280.779 71.7514 285.635 68.9653 289.813C63.9893 297.058 53.1326 303.233 44.0024 301.831C34.4124 300.353 33.8469 285.802 34.4953 278.021Z" fill="#E6635E"/>
<path d="M34.4953 278.021C35.2492 269.05 37.5111 259.927 35.2492 251.181C32.3466 239.623 21.9649 230.29 21.8744 218.362C21.8744 212.437 24.468 206.812 27.6646 201.821C28.4148 200.508 29.4166 199.355 30.6125 198.428C33.0628 196.747 36.5159 197.101 39.0114 198.707C41.5069 200.313 43.1505 202.975 44.2437 205.742C48.0134 215.384 45.7968 226.693 50.049 236.155C54.4897 246.032 65.075 251.86 70.3223 261.337C72.6985 265.761 73.8275 270.747 73.5885 275.763C73.3494 280.779 71.7514 285.635 68.9653 289.813C63.9893 297.058 53.1326 303.233 44.0024 301.831C34.4124 300.353 33.8469 285.802 34.4953 278.021Z" fill="url(#paint8_linear_84_493)"/>
<path d="M44.4774 260.515C41.3184 247.412 31.4268 235.462 33.3569 222.125C33.6434 220.104 34.5933 217.759 36.6063 217.435C39.2828 216.998 40.8284 220.308 41.4918 222.939C42.6303 227.462 43.9346 231.986 46.2265 235.989C50.3883 243.325 57.4828 248.55 62.2025 255.532C68.5581 264.933 70.6616 278.632 65.6932 289.119C63.6952 293.334 59.6617 297.465 54.5575 296.206C49.28 294.887 47.9757 288.908 47.1614 284.279C45.7817 276.416 46.3623 268.311 44.4774 260.515Z" fill="url(#paint9_linear_84_493)"/>
<path d="M301.675 208.426C306.452 205.768 311.39 203.411 316.46 201.369L314.13 224.379C313.075 234.768 311.966 245.361 307.661 254.868C303.356 264.375 295.206 272.774 284.923 274.568C264.144 278.202 268.668 256.203 272.551 244.615C277.613 229.454 287.947 216.613 301.675 208.426Z" fill="#E6635E"/>
<path d="M296.857 220.33C301.132 217.954 305.552 215.846 310.089 214.02L308.001 234.617C307.058 243.913 306.063 253.398 302.21 261.91C298.358 270.422 291.06 277.939 281.854 279.544C263.255 282.794 267.296 263.109 270.779 252.727C275.31 239.153 284.565 227.657 296.857 220.33Z" fill="url(#paint10_linear_84_493)"/>
<path d="M293.11 273.324C296.541 263.403 301.2 252.742 310.677 248.218C314.733 246.288 319.28 245.7 323.75 245.316C333.851 244.456 344.008 244.486 354.104 245.406C349.377 252.373 344.544 259.452 337.962 264.699C333.129 268.552 327.497 271.296 322.612 275.081C317.93 278.708 313.889 283.314 308.513 285.802C305.219 287.31 294.746 290.28 291.437 287.89C287.237 284.852 291.64 277.584 293.11 273.324Z" fill="#E6635E"/>
<path d="M293.11 273.324C296.541 263.403 301.2 252.742 310.677 248.218C314.733 246.288 319.28 245.7 323.75 245.316C333.851 244.456 344.008 244.486 354.104 245.406C349.377 252.373 344.544 259.452 337.962 264.699C333.129 268.552 327.497 271.296 322.612 275.081C317.93 278.708 313.889 283.314 308.513 285.802C305.219 287.31 294.746 290.28 291.437 287.89C287.237 284.852 291.64 277.584 293.11 273.324Z" fill="url(#paint11_linear_84_493)"/>
<path d="M329.812 248.022C333.458 248.201 337.089 248.606 340.684 249.236L331.244 261.465C326.985 266.984 322.619 272.601 316.829 276.476C311.039 280.351 303.447 282.236 296.986 279.635C283.92 274.357 294.241 263.478 300.537 258.276C308.752 251.461 319.14 247.823 329.812 248.022Z" fill="url(#paint12_linear_84_493)"/>
<path d="M45.0504 246.658C46.3773 252.935 47.8852 259.176 49.574 265.378C51.6097 272.917 53.9846 280.562 58.6213 286.873C66.6356 297.88 80.4402 303.361 93.9658 304.869C93.2571 295.319 92.8424 285.769 92.7218 276.22C92.6313 269.63 92.963 265.25 88.0323 260.583C82.6115 255.441 75.3662 251.649 68.3395 249.274C66.4471 248.686 44.7564 245.27 45.0504 246.658Z" fill="#E6635E"/>
<path d="M60.0839 259C61.1846 264.217 62.4412 269.396 63.8536 274.538C65.5499 280.803 67.5177 287.137 71.3402 292.384C77.9899 301.514 88.4017 303.188 99.6278 304.447C99.0398 296.546 99.7485 291.502 99.6278 283.578C99.5524 278.104 99.8314 274.463 95.7375 270.595C91.2139 266.328 85.2277 263.176 79.3847 261.216C77.8315 260.688 59.8426 257.854 60.0839 259Z" fill="url(#paint13_linear_84_493)"/>
<path d="M100.45 242.194C102.41 239.36 104.807 236.804 106.323 233.72C109.595 227.055 108.321 218.898 111.404 212.15C112.023 210.778 112.912 209.398 114.337 208.878C116.531 208.071 118.921 209.685 120.203 211.63C124.583 218.264 120.919 227.048 121.198 235.002C121.349 239.367 122.706 243.589 123.46 247.887C123.829 249.99 124.033 252.207 123.309 254.22C122.691 255.693 121.821 257.048 120.738 258.223C114.872 265.31 106.662 270.007 98.3989 263.184C91.7643 257.643 96.2653 248.226 100.45 242.194Z" fill="#E6635E"/>
<path d="M188.54 238.153H90.935V301.763H188.54V238.153Z" fill="white"/>
<path d="M301.343 250.02H203.739V301.763H301.343V250.02Z" fill="white"/>
<path d="M244.195 211.758H146.591V302.351H244.195V211.758Z" fill="white"/>
<path d="M169.178 211.66H146.802V237.188H169.178V211.66Z" fill="#E6635E"/>
<path d="M169.178 211.66H146.802V237.188H169.178V211.66Z" fill="url(#paint14_linear_84_493)"/>
<path d="M113.055 238.153H90.9953V305.992H113.055V238.153Z" fill="#E6635E"/>
<path d="M113.229 238.055H90.852V305.012H113.229V238.055Z" fill="url(#paint15_linear_84_493)"/>
<path d="M199.14 222.117C200.323 222.292 201.519 222.36 202.713 222.321H206.483C207.716 222.358 208.95 222.318 210.177 222.2C210.023 223.794 209.953 225.394 209.966 226.995V242.609C209.946 244.121 210.027 245.632 210.208 247.133H203.716C203.892 245.631 203.97 244.12 203.95 242.609V227.417H202.759C201.545 227.418 200.331 227.486 199.125 227.621L199.14 222.117Z" fill="#E6635E"/>
<path d="M140.883 273.649C138.207 273.649 137.521 273.649 136.412 273.769C136.481 272.575 136.691 271.393 137.038 270.248C137.86 267.686 139.342 265.384 141.336 263.576C142.987 262.119 144.752 260.796 146.613 259.618C149.177 257.891 149.802 257.115 149.802 255.743C149.802 254.37 148.521 253.36 146.613 253.36C146.009 253.309 145.402 253.423 144.856 253.688C144.311 253.953 143.847 254.361 143.514 254.868C143.059 255.627 142.8 256.487 142.761 257.371L136.503 256.715C136.955 254.122 137.491 252.81 138.682 251.438C140.378 249.447 143.092 248.369 146.575 248.369C150.594 248.369 153.662 249.711 155.148 252.139C155.807 253.18 156.15 254.39 156.135 255.622C156.14 256.695 155.896 257.754 155.421 258.716C154.946 259.677 154.253 260.515 153.399 261.163C152.031 262.321 150.587 263.386 149.079 264.353C146.485 266.139 145.384 267.18 144.698 268.492H151.642C153.233 268.521 154.824 268.453 156.407 268.288V273.86C154.68 273.716 153.429 273.656 151.318 273.656L140.883 273.649Z" fill="#E6635E"/>
<path d="M269.889 279.318C269.941 280.03 270.234 280.702 270.719 281.226C271.175 281.659 271.714 281.995 272.303 282.214C272.893 282.433 273.521 282.53 274.149 282.5C276.471 282.5 277.919 281.339 277.919 279.522C277.955 278.981 277.819 278.442 277.53 277.983C277.242 277.524 276.816 277.168 276.313 276.966C275.418 276.683 274.483 276.55 273.546 276.574C272.385 276.574 271.043 276.634 269.882 276.755V271.636C270.928 271.754 271.98 271.812 273.033 271.809C275.868 271.809 277.263 270.859 277.263 268.952C277.263 267.338 276.139 266.418 274.172 266.418C272.053 266.418 270.982 267.255 270.538 269.155L264.099 268.235C264.439 266.831 265.126 265.535 266.097 264.466C267.914 262.498 270.658 261.488 274.285 261.488C277.534 261.488 280.218 262.385 281.914 264.021C282.464 264.576 282.895 265.238 283.181 265.965C283.468 266.692 283.604 267.469 283.581 268.25C283.581 271.409 281.884 273.377 278.454 274.176C279.871 274.282 281.218 274.837 282.299 275.76C282.921 276.312 283.418 276.99 283.757 277.749C284.096 278.508 284.27 279.331 284.267 280.163C284.303 281.578 283.886 282.968 283.076 284.128C282.341 285.098 281.381 285.875 280.278 286.39C278.31 287.182 276.203 287.577 274.081 287.551C271.397 287.551 268.721 286.925 267.137 285.885C265.743 284.953 264.671 283.613 264.069 282.047C263.866 281.531 263.697 281.003 263.564 280.464L269.889 279.318Z" fill="#E6635E"/>
<path d="M194.119 152.31L195.928 207.724C195.928 207.724 190.914 210.288 191.035 211.494C191.156 212.7 201.59 211.698 201.59 211.698L205.284 161.35H207.034L210.592 211.494C210.592 211.494 216.767 212.896 218.282 212.429C219.798 211.962 215.606 207.996 215.606 207.996L218.109 153.215L194.119 152.31Z" fill="#606161"/>
<path d="M194.119 152.31L195.928 207.724C195.928 207.724 190.914 210.288 191.035 211.494C191.156 212.7 201.59 211.698 201.59 211.698L205.284 161.35H207.034L210.592 211.494C210.592 211.494 216.767 212.896 218.282 212.429C219.798 211.962 215.606 207.996 215.606 207.996L218.109 153.215L194.119 152.31Z" fill="url(#paint16_linear_84_493)"/>
<path d="M121.688 177.514L122.849 233.253C122.849 233.253 117.835 235.816 117.956 236.985C118.077 238.153 128.511 237.188 128.511 237.188L132.213 186.833H133.955L137.513 236.985C137.513 236.985 143.688 238.379 145.203 237.912C146.719 237.445 142.527 233.486 142.527 233.486L145.03 178.705L121.688 177.514Z" fill="#606161"/>
<path d="M121.688 177.514L122.849 233.253C122.849 233.253 117.835 235.816 117.956 236.985C118.077 238.153 128.511 237.188 128.511 237.188L132.213 186.833H133.955L137.513 236.985C137.513 236.985 143.688 238.379 145.203 237.912C146.719 237.445 142.527 233.486 142.527 233.486L145.03 178.705L121.688 177.514Z" fill="url(#paint17_linear_84_493)"/>
<path d="M259.153 190.067L260.963 245.489C260.963 245.489 255.949 248.052 256.07 249.221C256.19 250.39 266.625 249.425 266.625 249.425L270.326 199.069H272.068L275.627 249.221C275.627 249.221 281.801 250.616 283.317 250.148C284.832 249.681 280.64 245.723 280.64 245.723L283.166 190.927L259.153 190.067Z" fill="#606161"/>
<path d="M259.153 190.067L260.963 245.489C260.963 245.489 255.949 248.052 256.07 249.221C256.19 250.39 266.625 249.425 266.625 249.425L270.326 199.069H272.068L275.627 249.221C275.627 249.221 281.801 250.616 283.317 250.148C284.832 249.681 280.64 245.723 280.64 245.723L283.166 190.927L259.153 190.067Z" fill="url(#paint18_linear_84_493)"/>
<path d="M195.8 49.9407C186.074 45.5151 185.999 26.4255 185.999 25.6188V24.3597H195.521V26.8477H188.517C188.705 31.0245 189.866 44.4822 196.863 47.6638L195.8 49.9407Z" fill="#E6635E"/>
<path d="M195.8 49.9407C186.074 45.5151 185.999 26.4255 185.999 25.6188V24.3597H195.521V26.8477H188.517C188.705 31.0245 189.866 44.4822 196.863 47.6638L195.8 49.9407Z" fill="url(#paint19_linear_84_493)"/>
<path d="M216.97 51.1621L215.945 48.9003C222.964 45.7111 224.608 31.8613 224.947 27.5413H217.988V25.0608H227.563L227.518 26.3501C227.48 27.1794 226.666 46.7516 216.97 51.1621Z" fill="url(#paint20_linear_84_493)"/>
<path d="M216.97 51.1621L215.945 48.9003C222.964 45.7111 224.608 31.8613 224.947 27.5413H217.988V25.0608H227.563L227.518 26.3501C227.48 27.1794 226.666 46.7516 216.97 51.1621Z" fill="url(#paint21_linear_84_493)"/>
<path d="M188.758 112.472C186.896 102.799 188.758 85.0742 188.962 84.471C189.678 82.6691 192.151 84.9988 194.194 84.6444C192.475 91.1283 195.981 111.092 196.682 112.073C196.88 112.401 197.154 112.678 197.481 112.879C197.799 113.012 198.14 113.082 198.484 113.083C200.208 113.184 201.939 113.065 203.633 112.729C206.649 112.148 208.737 112.495 211.248 112.729C212.247 112.82 213.244 112.526 214.033 111.907C214.823 111.287 215.345 110.389 215.493 109.396C216.588 102.022 216.689 94.5338 215.794 87.1324L219.632 87.0495C220.095 86.9979 220.563 87.079 220.981 87.2832C221.215 87.4726 221.404 87.7115 221.534 87.9827C221.665 88.2538 221.733 88.5505 221.735 88.8514C222.693 95.9987 222.489 107.353 221.125 114.425C219.21 124.422 217.626 127.362 218.003 137.623C218.003 138.377 218.667 153.32 218.003 153.818C216.857 154.73 195.627 156.268 193.998 152.943C193.764 152.468 193.681 136.696 193.644 136.221C193.508 134.382 190.575 121.889 188.758 112.472Z" fill="#E6635E"/>
<path d="M193.689 77.8364C193.81 77.8026 193.937 77.8026 194.058 77.8364C194.19 77.9012 194.294 78.0108 194.352 78.1455C194.624 78.8667 194.738 79.6383 194.684 80.4073C194.772 81.2061 195.029 81.9771 195.438 82.6691C196.297 84.6369 194.202 84.9309 192.422 84.8329C188.479 84.5388 191.065 78.4772 193.689 77.8364Z" fill="url(#paint22_linear_84_493)"/>
<path d="M216.096 85.3154C216 85.681 216.022 86.0674 216.157 86.4204C216.292 86.7733 216.534 87.075 216.85 87.2832C217.502 87.6742 218.253 87.8704 219.014 87.8486C219.354 87.8919 219.7 87.8661 220.03 87.7728C220.36 87.6796 220.669 87.5207 220.936 87.3058C221.173 86.9921 221.338 86.6308 221.422 86.2467C221.505 85.8627 221.504 85.4652 221.419 85.0817C221.313 84.0563 220.921 80.2037 219.029 81.5985C218.418 82.0509 218.32 83.1064 217.724 83.702C217.129 84.2976 216.367 84.5087 216.096 85.3154Z" fill="url(#paint23_linear_84_493)"/>
<path d="M219.639 69.445H194.307V84.5238H219.639V69.445Z" fill="#606161"/>
<path d="M219.639 69.445H194.307V84.5238H219.639V69.445Z" fill="url(#paint24_linear_84_493)"/>
<path d="M192.973 23.0629H220.635V42.8613C220.635 46.5305 219.177 50.0494 216.582 52.6439C213.988 55.2384 210.469 56.696 206.8 56.696C203.131 56.696 199.612 55.2384 197.017 52.6439C194.423 50.0494 192.965 46.5305 192.965 42.8613V23.0629H192.973Z" fill="#E6635E"/>
<path d="M192.973 23.0629H220.635V42.8613C220.635 46.5305 219.177 50.0494 216.582 52.6439C213.988 55.2384 210.469 56.696 206.8 56.696C203.131 56.696 199.612 55.2384 197.017 52.6439C194.423 50.0494 192.965 46.5305 192.965 42.8613V23.0629H192.973Z" fill="url(#paint25_linear_84_493)"/>
<path d="M211.942 55.158H201.628V58.6336H211.942V55.158Z" fill="#E6635E"/>
<path opacity="0.26" d="M211.942 55.158H201.628V57.7741H211.942V55.158Z" fill="url(#paint26_linear_84_493)"/>
<path d="M208.376 57.6836H204.568V63.5643H208.376V57.6836Z" fill="#E6635E"/>
<path d="M211.776 63.3156H201.258V66.3765H211.776V63.3156Z" fill="#E6635E"/>
<path opacity="0.26" d="M211.776 63.3156H201.258V66.3765H211.776V63.3156Z" fill="url(#paint27_linear_84_493)"/>
<path d="M215.169 68.186V69.053C215.167 69.1878 215.15 69.322 215.116 69.4526H197.632C197.604 69.3211 197.589 69.1873 197.587 69.053V68.186C197.586 67.9378 197.634 67.6919 197.728 67.4624C197.822 67.2328 197.961 67.0241 198.136 66.8483C198.311 66.6725 198.519 66.533 198.749 66.4378C198.978 66.3426 199.223 66.2936 199.472 66.2936H213.261C213.511 66.2906 213.759 66.3374 213.991 66.4312C214.223 66.5251 214.434 66.6641 214.611 66.8402C214.789 67.0164 214.929 67.226 215.025 67.4571C215.121 67.6881 215.17 67.9359 215.169 68.186Z" fill="#E6635E"/>
<path d="M212.198 103.802C212.854 104.903 213.525 106.124 213.291 107.383C212.884 109.577 210.004 110.497 209.273 112.608C208.828 113.89 209.22 115.511 208.285 116.491C207.35 117.471 205.33 117.003 204.41 115.835C203.49 114.666 203.234 113.128 202.744 111.726C202.178 110.12 201.296 108.657 200.618 107.097C199.884 105.542 199.547 103.83 199.637 102.113C199.693 101.257 199.948 100.425 200.383 99.6857C200.817 98.9459 201.419 98.3183 202.141 97.8534C203.648 96.9939 206.664 96.6697 208.172 97.6121C209.981 98.6902 211.203 102.06 212.198 103.802Z" fill="url(#paint28_linear_84_493)"/>
<path d="M208.662 93.4504C208.693 94.1001 208.555 94.7469 208.262 95.3277C208.449 95.2254 208.657 95.1668 208.87 95.1564C209.083 95.1459 209.295 95.1839 209.491 95.2674C209.075 95.9452 208.598 96.5836 208.066 97.1748C207.666 97.6928 207.12 98.0788 206.498 98.2831C206.061 98.3811 205.609 98.3283 205.171 98.4263C204.524 98.6441 203.955 99.048 203.535 99.5874C202.946 100.138 202.518 100.839 202.299 101.615C202.012 103.056 203.09 104.405 203.287 105.86C202.925 106.071 202.457 105.491 202.103 105.702C202.03 105.758 201.972 105.83 201.933 105.912C201.894 105.995 201.874 106.085 201.877 106.177C201.841 106.652 201.926 107.129 202.123 107.562C202.321 107.996 202.625 108.373 203.008 108.657L202.759 110.346C202.751 110.545 202.676 110.736 202.548 110.889C202.186 111.213 201.65 110.798 201.364 110.406C199.915 108.403 198.653 106.27 197.594 104.036C197.242 103.385 197.014 102.674 196.923 101.94C196.877 101.573 196.922 101.2 197.053 100.854C197.185 100.509 197.399 100.201 197.677 99.9568C197.83 99.8657 197.969 99.754 198.092 99.6251C198.243 99.3808 198.322 99.0983 198.318 98.8109C198.642 96.1872 201.032 95.1769 203.249 94.4531C204.04 94.1892 204.855 94.0007 205.639 93.6992C206.295 93.5107 208.594 92.1159 208.662 93.4504Z" fill="#606161"/>
<path d="M208.662 93.4504C208.693 94.1001 208.555 94.7469 208.262 95.3277C208.449 95.2254 208.657 95.1668 208.87 95.1564C209.083 95.1459 209.295 95.1839 209.491 95.2674C209.075 95.9452 208.598 96.5836 208.066 97.1748C207.666 97.6928 207.12 98.0788 206.498 98.2831C206.061 98.3811 205.609 98.3283 205.171 98.4263C204.524 98.6441 203.955 99.048 203.535 99.5874C202.946 100.138 202.518 100.839 202.299 101.615C202.012 103.056 203.09 104.405 203.287 105.86C202.925 106.071 202.457 105.491 202.103 105.702C202.03 105.758 201.972 105.83 201.933 105.912C201.894 105.995 201.874 106.085 201.877 106.177C201.841 106.652 201.926 107.129 202.123 107.562C202.321 107.996 202.625 108.373 203.008 108.657L202.759 110.346C202.751 110.545 202.676 110.736 202.548 110.889C202.186 111.213 201.65 110.798 201.364 110.406C199.915 108.403 198.653 106.27 197.594 104.036C197.242 103.385 197.014 102.674 196.923 101.94C196.877 101.573 196.922 101.2 197.053 100.854C197.185 100.509 197.399 100.201 197.677 99.9568C197.83 99.8657 197.969 99.754 198.092 99.6251C198.243 99.3808 198.322 99.0983 198.318 98.8109C198.642 96.1872 201.032 95.1769 203.249 94.4531C204.04 94.1892 204.855 94.0007 205.639 93.6992C206.295 93.5107 208.594 92.1159 208.662 93.4504Z" fill="url(#paint29_linear_84_493)"/>
<path opacity="0.26" d="M194.473 22.8443V45.108C194.473 45.108 194.94 49.6316 197.383 51.9839C198.96 53.4434 200.773 54.6261 202.744 55.4822C202.744 55.4822 200.535 54.6679 200.301 44.7612C200.067 34.8545 200.301 22.9649 200.301 22.9649L194.473 22.8443Z" fill="url(#paint30_linear_84_493)"/>
<path d="M215.447 72.2648H198.084V81.4703H215.447V72.2648Z" fill="url(#paint31_linear_84_493)"/>
<path d="M199.336 113.271L202.088 112.352C202.088 112.352 207.644 124.528 207.697 124.761C207.75 124.995 210.615 112.118 210.615 112.118L212.771 112.698L207.991 132.052L199.336 113.271Z" fill="white"/>
<path d="M203.03 112.819L202.088 112.359L202.374 112.977L203.03 112.819Z" fill="url(#paint32_linear_84_493)"/>
<path d="M200.301 112.94L207.961 129.662L212.13 112.412L211.429 112.299L207.757 127.099L200.995 112.585L200.301 112.94Z" fill="#E6635E"/>
<path d="M208.217 136.379C209.795 136.379 211.075 135.1 211.075 133.522C211.075 131.944 209.795 130.665 208.217 130.665C206.639 130.665 205.36 131.944 205.36 133.522C205.36 135.1 206.639 136.379 208.217 136.379Z" fill="white"/>
<path d="M112.731 139.131C109.06 133.251 106.534 126.805 104.189 120.351C103.639 118.843 103.277 116.807 104.724 115.963C105.23 115.734 105.793 115.661 106.34 115.752C106.888 115.844 107.396 116.095 107.801 116.476C108.559 117.237 109.168 118.135 109.595 119.122C110.632 120.98 111.769 122.779 113.003 124.513L119.034 133.356C119.607 134.308 120.338 135.155 121.198 135.859C123.362 137.465 126.43 137.201 129.16 136.854C134.061 136.111 139.07 136.579 143.748 138.219C145.645 138.99 147.423 140.028 149.026 141.303C151.759 143.327 154.339 145.55 156.746 147.952C158.571 149.769 160.403 152.22 159.505 154.58C158.85 156.283 156.957 157.271 155.133 157.859C153.308 158.447 149.478 159.005 147.97 160.121C147.339 162.858 146.854 165.626 146.515 168.414L145.844 176.165C145.701 177.816 145.482 179.625 144.201 180.756C143.234 181.474 142.095 181.924 140.898 182.06C135.775 183.025 130.512 182.981 125.405 181.932C124.244 181.699 123 181.344 122.321 180.424C121.898 179.745 121.666 178.963 121.65 178.163C120.844 170.457 121.402 162.639 120.044 155.002C119.788 153.207 119.257 151.462 118.469 149.83C117.187 147.387 113.515 140.413 112.731 139.131Z" fill="#E6635E"/>
<path d="M143.726 160.95C143.726 160.95 143.726 180.477 140.898 182.06C140.898 182.06 145.49 181.307 145.693 177.431C146.334 165.074 148.083 159.654 148.083 159.654L143.726 160.95Z" fill="url(#paint33_linear_84_493)"/>
<path d="M143.726 160.95C141.779 160.684 139.817 160.538 137.852 160.513C137.145 160.553 136.436 160.459 135.764 160.234C134.528 159.714 133.902 158.364 133.374 157.135C132.656 155.733 132.264 154.187 132.228 152.612C132.295 152.224 132.282 151.826 132.19 151.443C131.919 150.651 130.954 150.418 130.185 150.079C127.539 148.925 126.528 145.736 126.053 142.886C125.714 140.828 125.533 138.566 126.641 136.802C126.868 139.688 127.703 142.494 129.092 145.035C129.642 146.186 130.475 147.179 131.512 147.922C132.033 148.287 132.644 148.5 133.279 148.539C133.914 148.578 134.547 148.44 135.108 148.141C135.369 147.993 135.586 147.777 135.734 147.515C135.847 147.277 135.92 147.023 135.952 146.761C136.561 143.389 136.829 139.964 136.752 136.538C136.987 136.469 137.238 136.486 137.463 136.583C137.687 136.681 137.871 136.854 137.981 137.073C138.188 137.52 138.274 138.015 138.229 138.506C138.19 141.477 137.53 144.407 136.292 147.108C135.598 148.616 134.731 150.35 135.538 151.782C135.985 152.421 136.583 152.939 137.279 153.29C138.488 154.13 139.814 154.786 141.215 155.235C142.625 155.612 144.163 155.575 145.445 156.276C146.553 156.887 147.774 158.47 147.556 159.827C147.284 161.576 145.068 161.131 143.726 160.95Z" fill="url(#paint34_linear_84_493)"/>
<path d="M137.212 156.653C139.189 156.653 140.793 155.049 140.793 153.072C140.793 151.094 139.189 149.49 137.212 149.49C135.234 149.49 133.63 151.094 133.63 153.072C133.63 155.049 135.234 156.653 137.212 156.653Z" fill="white"/>
<path d="M104.626 116.988C105.023 117.112 105.446 117.12 105.846 117.011C106.247 116.903 106.608 116.683 106.888 116.378C107.155 116.073 107.334 115.702 107.408 115.304C107.483 114.907 107.449 114.496 107.31 114.116C107.217 113.896 107.141 113.669 107.084 113.437C107.057 112.914 107.172 112.393 107.416 111.929C107.744 111.046 107.86 110.099 107.755 109.162C107.747 108.946 107.682 108.735 107.567 108.552C107.4 108.354 107.18 108.207 106.933 108.129C105.914 107.713 104.781 107.665 103.729 107.994C103.22 108.15 102.755 108.423 102.37 108.79C101.985 109.158 101.691 109.611 101.513 110.112C100.962 112.02 102.508 116.227 104.626 116.988Z" fill="url(#paint35_linear_84_493)"/>
<path d="M142.218 127.981C142.391 129.231 142.124 130.502 141.464 131.577C140.868 132.369 137.762 133.085 136.94 133.673C136.118 134.261 136.322 137.91 135.937 138.754C135.674 139.335 134.897 141.371 133.547 141.325C132.718 141.288 130.735 139.75 130.17 139.177C129.734 138.629 129.488 137.954 129.469 137.254C128.908 132.753 128.78 128.209 129.084 123.683C129.175 122.311 129.363 120.818 130.381 119.838C131.165 119.177 132.128 118.765 133.148 118.654C135.101 118.33 138.9 118.353 140.325 119.883C141.901 121.565 142.09 125.862 142.218 127.981Z" fill="url(#paint36_linear_84_493)"/>
<path d="M139.911 118.835C139.484 119.064 139.037 119.253 138.576 119.401C136.737 120.155 135.244 121.806 133.351 122.341C132.688 122.522 131.844 122.665 131.61 123.374C131.522 123.67 131.493 123.98 131.527 124.286L131.647 127.966C131.535 127.797 131.38 127.661 131.198 127.573C131.015 127.485 130.813 127.447 130.611 127.464C130.409 127.481 130.215 127.552 130.05 127.669C129.885 127.787 129.755 127.946 129.672 128.131C129.502 128.548 129.436 129 129.479 129.448C129.523 129.895 129.674 130.326 129.921 130.702C129.297 130.92 128.636 131.017 127.976 130.989C127.632 130.963 127.301 130.848 127.015 130.657C126.728 130.465 126.496 130.203 126.34 129.896C126.134 129.261 126.057 128.592 126.114 127.928C126.114 126.82 125.857 125.726 125.82 124.618C125.792 122.932 126.159 121.263 126.893 119.744C127.626 118.225 128.704 116.9 130.042 115.872C132.572 114.045 135.647 113.128 138.765 113.271C139.517 113.212 140.266 113.417 140.883 113.852C141.15 114.096 141.358 114.399 141.488 114.736C141.619 115.073 141.67 115.437 141.637 115.797C141.392 116.965 140.788 118.027 139.911 118.835Z" fill="#606161"/>
<path d="M282.902 155.1C284.372 158.236 284.41 161.832 284.41 165.293C284.41 170.741 284.41 176.19 284.41 181.638C284.41 185.008 284.41 188.424 283.535 191.688C283.422 192.399 283.059 193.046 282.51 193.513C281.95 193.824 281.308 193.958 280.671 193.897C275.302 193.942 269.927 193.762 264.574 193.369C263.111 193.256 261.558 193.091 260.442 192.118C259.327 191.145 258.935 189.343 258.716 187.76C258.196 183.953 259.854 177.801 259.613 173.963C259.198 167.404 257.253 162.752 260.638 157.12C261.286 156.004 262.094 154.988 263.036 154.105C268.193 149.377 279.404 147.628 282.902 155.1Z" fill="#E6635E"/>
<path d="M267.808 150.697L264.054 163.174L264.868 163.408L266.617 160.845L268.886 153.207L267.808 150.697Z" fill="white"/>
<path d="M268.17 151.142L264.506 163.446L264.868 163.408L265.396 162.534L268.502 152.039L268.17 151.142Z" fill="#E6635E"/>
<path d="M263.699 173.315C265.211 173.315 266.436 171.776 266.436 169.877C266.436 167.978 265.211 166.439 263.699 166.439C262.188 166.439 260.963 167.978 260.963 169.877C260.963 171.776 262.188 173.315 263.699 173.315Z" fill="white"/>
<path d="M281.997 157.346C281.997 157.346 285.262 160.724 283.633 167.834C282.005 174.943 275.34 183.568 272.558 182.407C269.776 181.246 258.867 166.575 258.867 166.575L258.693 162.73L271.744 170.427C271.744 170.427 275.943 158.048 278.303 157C278.883 156.682 279.545 156.545 280.203 156.607C280.862 156.668 281.487 156.926 281.997 157.346Z" fill="url(#paint37_linear_84_493)"/>
<path d="M256.017 155.801C255.488 158.554 255.399 161.373 255.753 164.154C255.763 164.438 255.878 164.707 256.077 164.908C256.244 165.015 256.437 165.075 256.635 165.082C256.982 165.142 257.336 165.142 257.683 165.082C258.031 164.968 258.345 164.771 258.6 164.508C258.855 164.245 259.042 163.925 259.146 163.574C259.355 162.911 259.459 162.219 259.455 161.523L259.492 159.571C259.554 158.562 259.493 157.549 259.311 156.555C258.799 154.459 256.605 152.725 256.017 155.801Z" fill="url(#paint38_linear_84_493)"/>
<path d="M260.586 155.545C260.246 154.904 259.711 154.165 258.995 154.278C258.792 154.33 258.601 154.424 258.437 154.554C258.272 154.684 258.136 154.846 258.037 155.032C257.273 156.41 257.07 158.031 257.472 159.555C257.867 161.057 258.471 162.496 259.266 163.83C259.51 164.368 259.865 164.848 260.307 165.24C260.755 165.557 261.271 165.764 261.815 165.843C262.356 166.004 262.938 165.944 263.436 165.677C263.66 165.488 263.838 165.249 263.955 164.98C264.073 164.71 264.127 164.418 264.114 164.124C264.212 160.98 262.048 158.259 260.586 155.545Z" fill="url(#paint39_linear_84_493)"/>
<path d="M264.024 144.831C263.91 145.644 263.91 146.469 264.024 147.281C264.084 147.689 264.228 148.08 264.446 148.431C264.664 148.781 264.951 149.082 265.29 149.317C266.12 149.83 267.341 149.845 267.816 150.704C268.17 151.353 267.929 152.257 268.427 152.8C268.829 153.128 269.342 153.288 269.859 153.245C271.065 153.29 272.377 153.313 273.342 152.582C274.541 151.669 274.737 149.973 274.85 148.465L275.302 141.348C275.489 140.165 275.321 138.953 274.82 137.865C274.376 137.211 273.785 136.671 273.093 136.289C272.034 135.547 270.789 135.116 269.497 135.045C267.748 135.045 265.441 136.312 264.74 137.993C264.49 138.911 264.376 139.861 264.401 140.813L264.024 144.831Z" fill="url(#paint40_linear_84_493)"/>
<path d="M268.449 132.617C267.205 132.813 265.848 131.909 264.725 132.482C264.335 132.745 264.026 133.112 263.832 133.54C263.637 133.969 263.565 134.442 263.624 134.909C263.617 135.207 263.696 135.5 263.85 135.754C264.018 135.954 264.237 136.105 264.483 136.191C266.049 136.758 267.745 136.863 269.369 136.493C269.698 136.41 270.043 136.41 270.372 136.493C270.621 136.596 270.843 136.756 271.02 136.96C271.798 137.582 272.39 138.406 272.732 139.342C273.026 140.451 272.611 141.687 273.078 142.728C273.451 142.456 273.762 142.11 273.991 141.71C274.256 142.208 274.337 142.784 274.218 143.336C274.099 143.888 273.789 144.38 273.342 144.726C274.058 145.135 274.651 145.729 275.061 146.445C276.147 145.601 277.085 144.581 277.836 143.429C278.192 142.99 278.48 142.499 278.688 141.974C279.163 140.549 278.409 139.026 277.64 137.737C276.66 136.063 275.536 134.336 273.795 133.469C273.118 133.14 272.38 132.956 271.628 132.931C270.876 132.905 270.127 133.037 269.429 133.318C269.076 133.124 268.747 132.889 268.449 132.617Z" fill="#606161"/>
<path d="M141.773 152.695C141.548 152.546 141.288 152.46 141.019 152.446C140.889 152.44 140.76 152.474 140.651 152.544C140.541 152.615 140.457 152.717 140.408 152.838C140.395 152.97 140.362 153.1 140.31 153.222C140.222 153.326 140.098 153.393 139.963 153.411C139.015 153.518 138.059 153.546 137.106 153.494C136.628 153.475 136.155 153.588 135.738 153.823C135.321 154.057 134.978 154.403 134.746 154.821C134.576 155.296 134.576 155.816 134.746 156.291C135.035 157.022 135.51 157.665 136.123 158.157C136.737 158.649 137.468 158.972 138.244 159.096C139.798 159.33 141.38 159.29 142.919 158.975C143.291 158.953 143.652 158.836 143.967 158.636C144.562 158.176 146.47 156.932 145.776 156.645C142.957 155.492 143.401 153.63 141.773 152.695Z" fill="url(#paint41_linear_84_493)"/>
<path d="M136.412 149.777L135.839 149.626C134.706 149.325 133.552 149.108 132.386 148.978C131.421 148.978 126.95 147.47 126.528 145.057C126.199 142.37 126.023 139.667 126.001 136.96L126.475 136.711L127.373 136.266L128.488 135.693C128.488 135.693 128.112 142.102 129.431 144.115C130.75 146.128 135.168 146.445 135.787 148.111C135.839 148.239 135.862 148.337 135.915 148.435L136.412 149.777Z" fill="white"/>
<path d="M137.242 135.724L139.458 137.066C139.458 137.066 140.74 138.988 139.926 140.684C139.111 142.381 136.367 147.002 137.212 149.498L136.397 149.769L135.327 147.696C135.327 147.696 135.085 145.283 137.189 141.438C139.292 137.593 137.242 135.724 137.242 135.724Z" fill="white"/>
<path d="M137.159 135.708L136.133 136.643L137.883 136.787C137.712 136.384 137.466 136.019 137.159 135.708Z" fill="url(#paint42_linear_84_493)"/>
<path d="M128.489 135.693L129.469 136.824L128.926 136.915L128.421 136.983L128.489 135.693Z" fill="url(#paint43_linear_84_493)"/>
<path d="M136.382 149.596C136.224 149.46 135.063 148.02 137.43 143.052C139.632 138.438 138.056 136.266 138.041 136.266L138.825 136.643C138.893 136.734 140.333 138.332 137.966 143.353C135.809 147.877 136.948 149.506 136.963 149.513L136.382 149.596Z" fill="#E6635E"/>
<path d="M136.804 149.626L136.412 149.777L135.99 149.928C135.937 149.83 135.892 149.702 135.839 149.626C135.364 148.872 134.399 148.608 133.133 148.239C131.377 147.836 129.737 147.037 128.338 145.902C126.574 144.394 126.453 138.973 126.475 136.711L127.373 136.266C127.297 138.671 127.493 143.987 128.881 145.253C130.185 146.303 131.716 147.036 133.351 147.394C134.244 147.61 135.098 147.961 135.885 148.435C136.304 148.731 136.624 149.146 136.804 149.626Z" fill="#E6635E"/>
<path d="M143.884 154.783L150.3 150.93L145.052 146.037L142.723 153.494L143.884 154.783Z" fill="url(#paint44_linear_84_493)"/>
<path d="M281.884 153.735C281.884 153.735 285.149 157.113 283.513 164.222C281.877 171.332 275.22 179.957 272.445 178.796C269.671 177.635 261.815 165.858 261.815 165.858L263.82 162.239L271.631 166.763C271.631 166.763 275.823 154.414 278.152 153.366C278.739 153.043 279.409 152.905 280.076 152.971C280.742 153.037 281.373 153.303 281.884 153.735Z" fill="#E6635E"/>
<path d="M277.308 150.38L275.121 149.159L264.868 163.408L266.496 165.27L277.308 150.38Z" fill="white"/>
<path d="M275.996 149.709L265.449 164.049L265.916 164.629L276.697 150.003L275.996 149.709Z" fill="#E6635E"/>
<defs>
<linearGradient id="paint0_linear_84_493" x1="256.733" y1="169.975" x2="272.905" y2="173.737" gradientUnits="userSpaceOnUse">
<stop stop-color="#010101" stop-opacity="0"/>
<stop offset="0.95" stop-color="#010101"/>
</linearGradient>
<linearGradient id="paint1_linear_84_493" x1="318.42" y1="208.727" x2="289.514" y2="271.198" gradientUnits="userSpaceOnUse">
<stop stop-color="#010101" stop-opacity="0"/>
<stop offset="0.95" stop-color="#010101"/>
</linearGradient>
<linearGradient id="paint2_linear_84_493" x1="336.959" y1="233.049" x2="290.803" y2="315.914" gradientUnits="userSpaceOnUse">
<stop stop-color="#010101" stop-opacity="0"/>
<stop offset="0.95" stop-color="#010101"/>
</linearGradient>
<linearGradient id="paint3_linear_84_493" x1="223.5" y1="232.039" x2="419.538" y2="222.253" gradientUnits="userSpaceOnUse">
<stop stop-color="#010101" stop-opacity="0"/>
<stop offset="0.95" stop-color="#010101"/>
</linearGradient>
<linearGradient id="paint4_linear_84_493" x1="187.341" y1="197.335" x2="190.605" y2="287.777" gradientUnits="userSpaceOnUse">
<stop stop-color="#010101" stop-opacity="0"/>
<stop offset="0.95" stop-color="#010101"/>
</linearGradient>
<linearGradient id="paint5_linear_84_493" x1="196.561" y1="198.542" x2="199.826" y2="288.984" gradientUnits="userSpaceOnUse">
<stop stop-color="#010101" stop-opacity="0"/>
<stop offset="0.95" stop-color="#010101"/>
</linearGradient>
<linearGradient id="paint6_linear_84_493" x1="78.3895" y1="219.486" x2="115.099" y2="336.617" gradientUnits="userSpaceOnUse">
<stop stop-color="#010101" stop-opacity="0"/>
<stop offset="0.95" stop-color="#010101"/>
</linearGradient>
<linearGradient id="paint7_linear_84_493" x1="67.382" y1="221.107" x2="170.528" y2="346.283" gradientUnits="userSpaceOnUse">
<stop stop-color="#010101" stop-opacity="0"/>
<stop offset="0.95" stop-color="#010101"/>
</linearGradient>
<linearGradient id="paint8_linear_84_493" x1="27.9964" y1="243.212" x2="159.928" y2="315.01" gradientUnits="userSpaceOnUse">
<stop stop-color="#010101" stop-opacity="0"/>
<stop offset="0.95" stop-color="#010101"/>
</linearGradient>
<linearGradient id="paint9_linear_84_493" x1="17.298" y1="246.545" x2="181.633" y2="305.284" gradientUnits="userSpaceOnUse">
<stop stop-color="#010101" stop-opacity="0"/>
<stop offset="0.95" stop-color="#010101"/>
</linearGradient>
<linearGradient id="paint10_linear_84_493" x1="282.065" y1="240.747" x2="370.532" y2="293.892" gradientUnits="userSpaceOnUse">
<stop stop-color="#010101" stop-opacity="0"/>
<stop offset="0.95" stop-color="#010101"/>
</linearGradient>
<linearGradient id="paint11_linear_84_493" x1="321.994" y1="254.393" x2="321.293" y2="324.321" gradientUnits="userSpaceOnUse">
<stop stop-color="#010101" stop-opacity="0"/>
<stop offset="0.95" stop-color="#010101"/>
</linearGradient>
<linearGradient id="paint12_linear_84_493" x1="312.017" y1="256.067" x2="347.102" y2="324.749" gradientUnits="userSpaceOnUse">
<stop stop-color="#010101" stop-opacity="0"/>
<stop offset="0.95" stop-color="#010101"/>
</linearGradient>
<linearGradient id="paint13_linear_84_493" x1="54.8516" y1="274.403" x2="193.696" y2="310.554" gradientUnits="userSpaceOnUse">
<stop stop-color="#010101" stop-opacity="0"/>
<stop offset="0.95" stop-color="#010101"/>
</linearGradient>
<linearGradient id="paint14_linear_84_493" x1="157.99" y1="253.149" x2="157.99" y2="198.602" gradientUnits="userSpaceOnUse">
<stop stop-color="white" stop-opacity="0"/>
<stop offset="0.23" stop-color="white" stop-opacity="0.23"/>
<stop offset="0.95" stop-color="white"/>
</linearGradient>
<linearGradient id="paint15_linear_84_493" x1="101.905" y1="275.903" x2="103.767" y2="217.624" gradientUnits="userSpaceOnUse">
<stop stop-color="white" stop-opacity="0"/>
<stop offset="0.23" stop-color="white" stop-opacity="0.23"/>
<stop offset="0.95" stop-color="white"/>
</linearGradient>
<linearGradient id="paint16_linear_84_493" x1="204.252" y1="195.435" x2="212.877" y2="141.589" gradientUnits="userSpaceOnUse">
<stop stop-color="#010101" stop-opacity="0"/>
<stop offset="0.95" stop-color="#010101"/>
</linearGradient>
<linearGradient id="paint17_linear_84_493" x1="131.459" y1="221.009" x2="140.084" y2="167.155" gradientUnits="userSpaceOnUse">
<stop stop-color="#010101" stop-opacity="0"/>
<stop offset="0.95" stop-color="#010101"/>
</linearGradient>
<linearGradient id="paint18_linear_84_493" x1="269.286" y1="233.2" x2="277.911" y2="179.354" gradientUnits="userSpaceOnUse">
<stop stop-color="#010101" stop-opacity="0"/>
<stop offset="0.95" stop-color="#010101"/>
</linearGradient>
<linearGradient id="paint19_linear_84_493" x1="181.226" y1="37.2897" x2="196.147" y2="37.056" gradientUnits="userSpaceOnUse">
<stop stop-color="white" stop-opacity="0"/>
<stop offset="0.66" stop-color="white" stop-opacity="0.23"/>
<stop offset="0.95" stop-color="white"/>
</linearGradient>
<linearGradient id="paint20_linear_84_493" x1="218.29" y1="35.6687" x2="280.414" y2="73.7802" gradientUnits="userSpaceOnUse">
<stop stop-color="white" stop-opacity="0"/>
<stop offset="0.23" stop-color="white" stop-opacity="0.23"/>
<stop offset="0.95" stop-color="white"/>
</linearGradient>
<linearGradient id="paint21_linear_84_493" x1="215.945" y1="38.1115" x2="227.563" y2="38.1115" gradientUnits="userSpaceOnUse">
<stop stop-color="white" stop-opacity="0"/>
<stop offset="0.23" stop-color="white" stop-opacity="0.23"/>
<stop offset="0.95" stop-color="white"/>
</linearGradient>
<linearGradient id="paint22_linear_84_493" x1="190.387" y1="81.3045" x2="195.611" y2="81.3045" gradientUnits="userSpaceOnUse">
<stop stop-color="#E5C6D6"/>
<stop offset="0.42" stop-color="#EAD4D0"/>
<stop offset="1" stop-color="#F0E9CB"/>
</linearGradient>
<linearGradient id="paint23_linear_84_493" x1="216.02" y1="84.5765" x2="221.479" y2="84.5765" gradientUnits="userSpaceOnUse">
<stop stop-color="#E5C6D6"/>
<stop offset="0.42" stop-color="#EAD4D0"/>
<stop offset="1" stop-color="#F0E9CB"/>
</linearGradient>
<linearGradient id="paint24_linear_84_493" x1="205.42" y1="73.0187" x2="210.434" y2="85.8356" gradientUnits="userSpaceOnUse">
<stop stop-color="#010101" stop-opacity="0"/>
<stop offset="0.95" stop-color="#010101"/>
</linearGradient>
<linearGradient id="paint25_linear_84_493" x1="192.973" y1="39.8757" x2="220.635" y2="39.8757" gradientUnits="userSpaceOnUse">
<stop stop-color="white" stop-opacity="0"/>
<stop offset="0.23" stop-color="white" stop-opacity="0.23"/>
<stop offset="0.95" stop-color="white"/>
</linearGradient>
<linearGradient id="paint26_linear_84_493" x1="206.702" y1="54.0497" x2="206.973" y2="62.2299" gradientUnits="userSpaceOnUse">
<stop stop-color="#010101" stop-opacity="0"/>
<stop offset="0.95" stop-color="#010101"/>
</linearGradient>
<linearGradient id="paint27_linear_84_493" x1="206.446" y1="62.1017" x2="206.619" y2="69.0982" gradientUnits="userSpaceOnUse">
<stop stop-color="#010101" stop-opacity="0"/>
<stop offset="0.95" stop-color="#010101"/>
</linearGradient>
<linearGradient id="paint28_linear_84_493" x1="199.607" y1="107.059" x2="213.336" y2="107.059" gradientUnits="userSpaceOnUse">
<stop stop-color="#E5C6D6"/>
<stop offset="0.42" stop-color="#EAD4D0"/>
<stop offset="1" stop-color="#F0E9CB"/>
</linearGradient>
<linearGradient id="paint29_linear_84_493" x1="206.053" y1="100.756" x2="196.614" y2="106.003" gradientUnits="userSpaceOnUse">
<stop stop-color="#010101" stop-opacity="0"/>
<stop offset="0.95" stop-color="#010101"/>
</linearGradient>
<linearGradient id="paint30_linear_84_493" x1="183.247" y1="39.8908" x2="232.434" y2="37.5611" gradientUnits="userSpaceOnUse">
<stop stop-color="#010101" stop-opacity="0"/>
<stop offset="0.95" stop-color="#010101"/>
</linearGradient>
<linearGradient id="paint31_linear_84_493" x1="206.86" y1="61.0688" x2="206.626" y2="99.7684" gradientUnits="userSpaceOnUse">
<stop stop-color="white" stop-opacity="0"/>
<stop offset="0.23" stop-color="white" stop-opacity="0.23"/>
<stop offset="0.95" stop-color="white"/>
</linearGradient>
<linearGradient id="paint32_linear_84_493" x1="202.088" y1="112.668" x2="203.03" y2="112.668" gradientUnits="userSpaceOnUse">
<stop stop-color="#010101" stop-opacity="0"/>
<stop offset="0.95" stop-color="#010101"/>
</linearGradient>
<linearGradient id="paint33_linear_84_493" x1="140.046" y1="170.201" x2="162.363" y2="173.601" gradientUnits="userSpaceOnUse">
<stop stop-color="#010101" stop-opacity="0"/>
<stop offset="0.95" stop-color="#010101"/>
</linearGradient>
<linearGradient id="paint34_linear_84_493" x1="111.668" y1="142.222" x2="213.042" y2="167.389" gradientUnits="userSpaceOnUse">
<stop stop-color="#010101" stop-opacity="0"/>
<stop offset="0.95" stop-color="#010101"/>
</linearGradient>
<linearGradient id="paint35_linear_84_493" x1="101.422" y1="112.45" x2="107.831" y2="112.45" gradientUnits="userSpaceOnUse">
<stop stop-color="#E5C6D6"/>
<stop offset="0.42" stop-color="#EAD4D0"/>
<stop offset="1" stop-color="#F0E9CB"/>
</linearGradient>
<linearGradient id="paint36_linear_84_493" x1="128.941" y1="129.896" x2="142.24" y2="129.896" gradientUnits="userSpaceOnUse">
<stop stop-color="#E5C6D6"/>
<stop offset="0.42" stop-color="#EAD4D0"/>
<stop offset="1" stop-color="#F0E9CB"/>
</linearGradient>
<linearGradient id="paint37_linear_84_493" x1="263.473" y1="182.543" x2="307.292" y2="87.2002" gradientUnits="userSpaceOnUse">
<stop stop-color="#010101" stop-opacity="0"/>
<stop offset="0.95" stop-color="#010101"/>
</linearGradient>
<linearGradient id="paint38_linear_84_493" x1="255.026" y1="160.055" x2="259.742" y2="159.233" gradientUnits="userSpaceOnUse">
<stop stop-color="#E5C6D6"/>
<stop offset="0.42" stop-color="#EAD4D0"/>
<stop offset="1" stop-color="#F0E9CB"/>
</linearGradient>
<linearGradient id="paint39_linear_84_493" x1="257.291" y1="160.106" x2="264.114" y2="160.106" gradientUnits="userSpaceOnUse">
<stop stop-color="#E5C6D6"/>
<stop offset="0.42" stop-color="#EAD4D0"/>
<stop offset="1" stop-color="#F0E9CB"/>
</linearGradient>
<linearGradient id="paint40_linear_84_493" x1="263.933" y1="144.16" x2="275.333" y2="144.16" gradientUnits="userSpaceOnUse">
<stop stop-color="#E5C6D6"/>
<stop offset="0.42" stop-color="#EAD4D0"/>
<stop offset="1" stop-color="#F0E9CB"/>
</linearGradient>
<linearGradient id="paint41_linear_84_493" x1="134.656" y1="155.854" x2="145.965" y2="155.854" gradientUnits="userSpaceOnUse">
<stop stop-color="#E5C6D6"/>
<stop offset="0.42" stop-color="#EAD4D0"/>
<stop offset="1" stop-color="#F0E9CB"/>
</linearGradient>
<linearGradient id="paint42_linear_84_493" x1="136.133" y1="136.251" x2="137.883" y2="136.251" gradientUnits="userSpaceOnUse">
<stop stop-color="#010101" stop-opacity="0"/>
<stop offset="0.95" stop-color="#010101"/>
</linearGradient>
<linearGradient id="paint43_linear_84_493" x1="127.931" y1="135.422" x2="129.484" y2="137.699" gradientUnits="userSpaceOnUse">
<stop stop-color="#010101" stop-opacity="0"/>
<stop offset="0.95" stop-color="#010101"/>
</linearGradient>
<linearGradient id="paint44_linear_84_493" x1="141.72" y1="147.04" x2="160.018" y2="166.854" gradientUnits="userSpaceOnUse">
<stop stop-color="#010101" stop-opacity="0"/>
<stop offset="0.95" stop-color="#010101"/>
</linearGradient>
</defs>
</svg>
